<?xml version="1.0" encoding="UTF-8" standalone="no"?>
<svg
   xmlns:dc="http://purl.org/dc/elements/1.1/"
   xmlns:cc="http://creativecommons.org/ns#"
   xmlns:rdf="http://www.w3.org/1999/02/22-rdf-syntax-ns#"
   xmlns:svg="http://www.w3.org/2000/svg"
   xmlns="http://www.w3.org/2000/svg"
   viewBox="0 0 595.27557 841.88977"
   id="svg2"
   height="841.88977"
   width="595.27557"
   version="1.1">
  <metadata
     id="metadata36">
    <rdf:RDF>
      <cc:Work
         rdf:about="">
        <dc:format>image/svg+xml</dc:format>
        <dc:type
           rdf:resource="http://purl.org/dc/dcmitype/StillImage" />
      </cc:Work>
    </rdf:RDF>
  </metadata>
  <defs
     id="defs34" />
  <g
     id="g4">
    <path
       id="path6"
       style="fill:#151616;fill-rule:evenodd"
       d="m 88.528,421.9518 -1.0645,2.0036 c -4.4601,8.3047 -6.6798,14.7325 -6.6798,19.2821 0,1.3357 0.5053,2.6356 1.534,3.9176 -0.8483,0.27 -2.7444,0.957 -5.7229,2.0573 -1.3728,0.4875 -2.6727,0.7408 -3.9176,0.7408 -2.4731,0 -3.7013,-1.1912 -3.7013,-3.5568 0,-4.8925 3.0514,-12.3848 9.153,-22.441 l 1.644,-2.7086 -2.6906,0 c -5.7779,0 -10.2367,0.9033 -13.4147,2.7265 1.6619,-6.012 6.1207,-9.0084 13.3789,-9.0084 l 6.5532,0.1625 1.4265,-2.1124 c 5.5246,-8.3239 13.9918,-19.4996 25.3837,-33.563 3.846,-4.7479 6.717,-7.7098 8.6297,-8.8651 1.8961,-1.1732 5.5796,-2.2198 11.0491,-3.1768 -1.0287,6.3549 -1.534,12.2581 -1.534,17.7289 0,14.4971 1.6786,29.1938 5.0191,44.0697 1.8411,8.1793 4.6392,13.4505 8.4135,15.8162 -3.3227,3.2855 -6.1566,4.9283 -8.5222,4.9283 -5.5604,0 -9.858,-9.5688 -12.8902,-28.7064 -5.8137,0.65 -11.699,0.9749 -17.6214,0.9749 L 88.528,421.9518 Z m 3.8101,-6.2832 10.6704,0.2712 c 7.3119,0 12.8901,-0.2533 16.7719,-0.7587 -1.589,-12.3669 -2.3836,-22.6214 -2.3836,-30.765 l 0,-3.9534 c -1.1553,1.4803 -3.773,4.6942 -7.8172,9.6226 -7.3477,8.9917 -12.7098,16.8269 -16.1399,23.5247 l -1.1016,2.0586 z" />
    <path
       id="path8"
       style="fill:#151616;fill-rule:evenodd"
       d="m 138.6365,386.1165 c 0.9788,-2.3094 2.404,-3.4647 4.2681,-3.4647 0.6769,0 1.497,0.1113 2.445,0.3263 4.7377,-1.5123 7.1034,-4.1402 7.1034,-7.8915 0,-1.4496 -0.5259,-2.6356 -1.5686,-3.5593 -1.044,-0.9327 -2.39,-1.3946 -4.0379,-1.3946 -2.4603,0 -4.579,1.076 -6.3472,3.2254 l -0.0243,-0.9071 c 0,-1.6095 0.7088,-2.8429 2.1111,-3.727 1.4099,-0.8764 3.384,-1.3139 5.9326,-1.3139 2.6203,0 4.7147,0.6205 6.2756,1.8551 1.5609,1.2347 2.3413,2.8992 2.3413,4.9847 0,3.9662 -2.6599,7.1839 -7.9874,9.6442 4.7543,1.3383 7.1277,4.1415 7.1277,8.4173 0,3.2498 -1.3063,5.957 -3.9189,8.1231 -2.6036,2.1584 -5.8687,3.2408 -9.7786,3.2408 -5.9327,0 -8.9035,-1.5763 -8.9035,-4.7301 0,-0.3582 0.0397,-0.916 0.119,-1.6568 2.3093,2.349 5.2648,3.5197 8.8472,3.5197 2.5166,0 4.6353,-0.7485 6.3395,-2.2531 1.7119,-1.4969 2.564,-3.3521 2.564,-5.5591 0,-1.6952 -0.5016,-3.0092 -1.5123,-3.9419 -1.012,-0.9314 -2.7559,-1.7041 -5.2405,-2.3093 -0.9481,0.2635 -1.8321,0.3992 -2.6356,0.3992 -1.3383,0 -2.509,-0.3429 -3.5197,-1.0274 z" />
    <path
       id="path10"
       style="fill:#dd2b1c;fill-rule:evenodd"
       d="m 223.5696,382.4509 c 0,0.2163 -0.0192,0.5771 -0.073,1.1195 -0.0537,0.5233 -0.1445,1.1195 -0.252,1.7695 -0.0908,0.6499 -0.2354,1.3357 -0.4158,2.0394 -0.1804,0.7229 -0.3966,1.3549 -0.6679,1.9498 -0.2533,0.5783 -0.5783,1.0658 -0.9391,1.4624 -0.3787,0.38 -0.7766,0.5783 -1.1911,0.5783 l -24.4459,0 -3.3393,16.6824 20.7433,0 c 0.4874,0 0.8495,0.1804 1.0478,0.5232 0.2162,0.3608 0.325,0.8483 0.325,1.4803 0,0.2521 -0.0179,0.6321 -0.0729,1.1374 -0.0538,0.5054 -0.1446,1.1016 -0.2521,1.7516 -0.0908,0.6499 -0.2354,1.2999 -0.4158,1.9677 -0.1804,0.6679 -0.3966,1.282 -0.6679,1.859 -0.252,0.5604 -0.577,1.0108 -0.9211,1.3728 -0.3608,0.3429 -0.7396,0.5233 -1.1733,0.5233 l -20.7253,0 -3.8639,19.2822 24.7696,0 c 0.4158,0 0.7408,0.1804 0.9391,0.5591 0.2162,0.3608 0.325,0.9032 0.325,1.6248 0,0.2354 -0.0179,0.6321 -0.0537,1.1554 -0.0359,0.5424 -0.1088,1.1374 -0.2355,1.7873 -0.1253,0.6499 -0.2699,1.3178 -0.4503,1.9857 -0.1817,0.6691 -0.3979,1.2999 -0.65,1.8961 -0.2712,0.5783 -0.5783,1.0478 -0.9211,1.4086 -0.3608,0.3429 -0.7587,0.5233 -1.2104,0.5233 l -34.41,0 c -0.5604,0 -1.0837,-0.0717 -1.5353,-0.2341 -0.4696,-0.1625 -0.8483,-0.4338 -1.1374,-0.7946 -0.3071,-0.38 -0.5054,-0.8303 -0.6141,-1.3728 -0.1075,-0.5591 -0.0896,-1.209 0.055,-1.9856 l 11.9152,-59.6876 c 0.325,-1.5519 0.957,-2.6714 1.932,-3.3572 0.957,-0.6858 2.0406,-1.0299 3.2139,-1.0299 l 33.9955,0 c 0.9211,0 1.3728,0.6691 1.3728,2.0227 z" />
    <path
       id="path12"
       style="fill:#dd2b1c;fill-rule:evenodd"
       d="m 332.9882,397.2193 c 0,1.9678 -0.2162,4.0263 -0.6679,6.1924 -0.4337,2.1481 -1.1553,4.2605 -2.1302,6.3191 -0.9928,2.0765 -2.2748,4.0263 -3.8459,5.8853 -1.5712,1.8411 -3.4852,3.4851 -5.7779,4.9104 -2.2748,1.4445 -4.9104,2.564 -7.9068,3.3943 -2.9977,0.8304 -6.5174,1.2462 -10.5796,1.2462 l -7.1494,0 -4.3692,21.8819 c -0.055,0.3429 -0.2354,0.6679 -0.5245,0.957 -0.2879,0.27 -0.7216,0.5054 -1.3178,0.6858 -0.6142,0.1625 -1.3716,0.307 -2.2928,0.3966 -0.902,0.0908 -2.0394,0.1267 -3.3764,0.1267 -1.3178,0 -2.3822,-0.0359 -3.2497,-0.1267 -0.8662,-0.0896 -1.534,-0.2341 -2.0394,-0.3966 -0.4874,-0.1804 -0.8124,-0.3979 -0.9928,-0.6679 -0.1804,-0.2712 -0.2175,-0.5962 -0.1088,-0.9749 l 12.349,-61.6374 c 0.3071,-1.6607 0.9928,-2.9068 2.0586,-3.7372 1.0466,-0.8303 2.3464,-1.2461 3.8818,-1.2461 l 14.9666,0 c 1.8411,0 3.4839,0.055 4.9283,0.1817 1.4445,0.1253 2.8711,0.3249 4.2784,0.6128 2.1495,0.4158 4.0814,1.0837 5.7958,1.9678 1.7157,0.8674 3.1602,1.969 4.3692,3.3047 1.1912,1.3178 2.1124,2.8697 2.7444,4.6571 0.632,1.7873 0.957,3.7922 0.957,6.067 z m -14.6238,1.5711 c 0,-1.6978 -0.3979,-3.1601 -1.2103,-4.4063 -0.8125,-1.227 -2.0752,-2.0944 -3.7551,-2.5998 -0.7395,-0.2341 -1.5699,-0.4145 -2.4911,-0.5053 -0.9211,-0.0896 -1.9319,-0.1267 -3.0693,-0.1267 l -6.1207,0 -4.6571,23.2906 6.3728,0 c 2.0215,0 3.7551,-0.2354 5.1816,-0.7229 1.4445,-0.4683 2.6894,-1.1003 3.773,-1.8769 1.0837,-0.7766 2.0036,-1.6978 2.7623,-2.7623 0.7587,-1.0657 1.3715,-2.166 1.859,-3.3406 0.4696,-1.1732 0.8316,-2.3464 1.0299,-3.5196 0.2163,-1.1925 0.325,-2.3299 0.325,-3.4302 z" />
    <path
       id="path14"
       style="fill:#dd2b1c;fill-rule:evenodd"
       d="m 385.3664,395.359 c 0,2.2748 -0.3071,4.5138 -0.9199,6.7349 -0.632,2.2211 -1.607,4.3334 -2.944,6.3011 -1.3357,1.9857 -3.0872,3.7731 -5.2174,5.3621 -2.1303,1.5878 -4.748,2.8518 -7.8173,3.8088 1.7157,0.6679 3.141,2.0036 4.2976,3.9905 1.1553,1.9857 2.1123,4.7122 2.8518,8.1602 l 2.6727,13.9022 c 0.1804,0.7753 0.3058,1.4624 0.4146,2.0752 0.1087,0.6141 0.1624,1.1374 0.1624,1.5711 0,0.3429 -0.1087,0.65 -0.3428,0.8841 -0.2342,0.2533 -0.65,0.4516 -1.2641,0.6141 -0.6141,0.1625 -1.4266,0.2713 -2.491,0.3429 -1.0479,0.0729 -2.3836,0.1088 -3.9906,0.1088 -1.4623,0 -2.6356,-0.0359 -3.5196,-0.1267 -0.8854,-0.0896 -1.5712,-0.2341 -2.0586,-0.4324 -0.4875,-0.1817 -0.8125,-0.4517 -0.957,-0.7587 -0.1625,-0.325 -0.2713,-0.6858 -0.3429,-1.1195 l -2.6177,-15.165 c -0.2892,-1.7515 -0.6679,-3.3048 -1.1553,-4.6405 -0.4875,-1.3357 -1.1016,-2.4552 -1.8424,-3.3584 -0.7395,-0.902 -1.6607,-1.5699 -2.7431,-2.0036 -1.1016,-0.4517 -2.3835,-0.6679 -3.8817,-0.6679 l -4.3872,0 -5.1995,26.1066 c -0.0551,0.3429 -0.2355,0.6679 -0.5246,0.957 -0.2879,0.27 -0.7216,0.5054 -1.2999,0.6858 -0.577,0.1625 -1.3357,0.307 -2.2569,0.3966 -0.9199,0.0908 -2.0394,0.1267 -3.393,0.1267 -1.337,0 -2.4194,-0.0359 -3.2869,-0.1267 -0.8661,-0.0896 -1.534,-0.2341 -2.0393,-0.3966 -0.4875,-0.1804 -0.8125,-0.3979 -0.9929,-0.6679 -0.1804,-0.2712 -0.2175,-0.5962 -0.1087,-0.9749 l 12.4577,-62.2336 c 0.2879,-1.5519 0.902,-2.6714 1.8769,-3.3572 0.9749,-0.6858 2.0944,-1.0299 3.3764,-1.0299 l 18.3968,0 c 3.2139,0 6.1207,0.307 8.7205,0.9033 2.5819,0.5962 4.803,1.5161 6.644,2.7443 1.8411,1.2462 3.2498,2.7981 4.2426,4.6763 0.9928,1.859 1.4803,4.0801 1.4803,6.6069 z m -14.9488,2.5998 c 0,-0.9928 -0.1624,-1.9127 -0.5053,-2.7623 -0.3429,-0.8661 -0.8662,-1.5877 -1.6249,-2.2198 -0.7408,-0.6141 -1.6965,-1.0836 -2.8889,-1.4265 -1.1733,-0.3429 -2.5998,-0.5054 -4.2605,-0.5054 l -7.9081,0 -3.8818,19.4984 6.6262,0 c 2.6548,0 4.9104,-0.3787 6.7527,-1.1374 1.8411,-0.7587 3.3214,-1.7515 4.4588,-2.9606 1.1195,-1.1924 1.9499,-2.5281 2.4552,-4.0084 0.5246,-1.4624 0.7766,-2.9606 0.7766,-4.478 z" />
    <path
       id="path16"
       style="fill:#dd2b1c;fill-rule:evenodd"
       d="m 437.5796,382.4509 c 0,0.2163 -0.0192,0.5771 -0.073,1.1195 -0.0537,0.5233 -0.1445,1.1195 -0.252,1.7695 -0.0909,0.6499 -0.2354,1.3357 -0.4158,2.0394 -0.1804,0.7229 -0.3966,1.3549 -0.6679,1.9498 -0.2533,0.5783 -0.5783,1.0658 -0.9391,1.4624 -0.3787,0.38 -0.7766,0.5783 -1.1911,0.5783 l -24.4459,0 -3.3393,16.6824 20.7432,0 c 0.4875,0 0.8496,0.1804 1.0479,0.5232 0.2162,0.3608 0.325,0.8483 0.325,1.4803 0,0.2521 -0.0179,0.6321 -0.073,1.1374 -0.0537,0.5054 -0.1445,1.1016 -0.252,1.7516 -0.0908,0.6499 -0.2354,1.2999 -0.4158,1.9677 -0.1804,0.6679 -0.3966,1.282 -0.6679,1.859 -0.252,0.5604 -0.577,1.0108 -0.9212,1.3728 -0.3608,0.3429 -0.7395,0.5233 -1.1732,0.5233 l -20.7253,0 -3.8639,19.2822 24.7696,0 c 0.4158,0 0.7408,0.1804 0.9391,0.5591 0.2162,0.3608 0.325,0.9032 0.325,1.6248 0,0.2354 -0.0179,0.6321 -0.0538,1.1554 -0.0358,0.5424 -0.1087,1.1374 -0.2354,1.7873 -0.1254,0.6499 -0.2699,1.3178 -0.4503,1.9857 -0.1817,0.6691 -0.3979,1.2999 -0.65,1.8961 -0.2712,0.5783 -0.5783,1.0478 -0.9212,1.4086 -0.3608,0.3429 -0.7587,0.5233 -1.2103,0.5233 l -34.41,0 c -0.5604,0 -1.0837,-0.0717 -1.5353,-0.2341 -0.4696,-0.1625 -0.8483,-0.4338 -1.1374,-0.7946 -0.3071,-0.38 -0.5054,-0.8303 -0.6141,-1.3728 -0.1075,-0.5591 -0.0896,-1.209 0.055,-1.9856 l 11.9152,-59.6876 c 0.325,-1.5519 0.957,-2.6714 1.9319,-3.3572 0.9571,-0.6858 2.0407,-1.0299 3.214,-1.0299 l 33.9954,0 c 0.9212,0 1.3729,0.6691 1.3729,2.0227 z" />
    <path
       id="path18"
       style="fill:#dd2b1c;fill-rule:evenodd"
       d="m 483.3176,385.7007 c 0,0.2891 -0.0359,0.6857 -0.0909,1.2269 -0.0537,0.5246 -0.1266,1.1016 -0.2341,1.7516 -0.1088,0.632 -0.2533,1.2819 -0.4158,1.9319 -0.1625,0.6499 -0.3608,1.2462 -0.5949,1.8053 -0.2355,0.5424 -0.5067,0.9928 -0.7946,1.3549 -0.2891,0.3428 -0.5962,0.5232 -0.9211,0.5232 -0.4875,0 -1.1016,-0.2175 -1.8411,-0.6678 -0.7408,-0.4516 -1.662,-0.9212 -2.7265,-1.4445 -1.0836,-0.5233 -2.3477,-0.9928 -3.7909,-1.4444 -1.4445,-0.4517 -3.0693,-0.6679 -4.9117,-0.6679 -1.8948,0 -3.5018,0.27 -4.8196,0.7945 -1.3178,0.5233 -2.4014,1.227 -3.2497,2.0944 -0.8303,0.8662 -1.4624,1.8232 -1.8603,2.9069 -0.4145,1.0645 -0.6141,2.166 -0.6141,3.2497 0,1.2628 0.325,2.3823 0.957,3.3572 0.632,0.9749 1.4803,1.8603 2.546,2.6906 1.0658,0.8304 2.2749,1.6428 3.6285,2.4194 1.3549,0.7753 2.7443,1.5699 4.1351,2.4194 1.3894,0.8483 2.7802,1.7682 4.1338,2.7802 1.3549,1.0107 2.5639,2.166 3.6297,3.4838 1.0645,1.3358 1.9127,2.8352 2.5448,4.5497 0.632,1.7157 0.957,3.6834 0.957,5.9032 0,3.3048 -0.6679,6.392 -2.0215,9.2259 -1.337,2.8352 -3.2318,5.2904 -5.687,7.4027 -2.4744,2.0945 -5.435,3.7372 -8.9189,4.9284 -3.4851,1.2103 -7.3477,1.8052 -11.5915,1.8052 -2.2928,0 -4.3872,-0.1804 -6.337,-0.5591 -1.9319,-0.3608 -3.6464,-0.8303 -5.1446,-1.3536 -1.4802,-0.5246 -2.7443,-1.0837 -3.7551,-1.6799 -1.0299,-0.577 -1.7873,-1.1374 -2.2748,-1.6607 -0.4874,-0.5412 -0.7407,-1.3357 -0.7407,-2.4014 0,-0.27 0.0358,-0.7037 0.1087,-1.2641 0.0717,-0.577 0.1625,-1.1912 0.2879,-1.8411 0.1266,-0.6499 0.2712,-1.3178 0.4337,-2.0215 0.1804,-0.687 0.3979,-1.3178 0.632,-1.8782 0.2534,-0.5591 0.5233,-1.0286 0.8125,-1.3894 0.307,-0.3442 0.6141,-0.5246 0.9749,-0.5246 0.5962,0 1.2999,0.2713 2.1302,0.8304 0.8304,0.5424 1.8603,1.1374 3.1052,1.7873 1.2282,0.6691 2.6906,1.282 4.3871,1.8424 1.6978,0.5591 3.7193,0.8482 6.0849,0.8482 2.0765,0 3.9176,-0.2712 5.4887,-0.7945 1.5699,-0.5233 2.8877,-1.2461 3.9535,-2.1481 1.0644,-0.9212 1.859,-1.9678 2.4014,-3.1781 0.5591,-1.2091 0.8304,-2.5269 0.8304,-3.9713 0,-1.2999 -0.325,-2.4552 -0.957,-3.4302 -0.6321,-0.9928 -1.4624,-1.8961 -2.5103,-2.7264 -1.0286,-0.8304 -2.2198,-1.6249 -3.5376,-2.3657 -1.3178,-0.7395 -2.6727,-1.5161 -4.0442,-2.3643 -1.3728,-0.8483 -2.7265,-1.7695 -4.0443,-2.7623 -1.3178,-0.9749 -2.5102,-2.1302 -3.5388,-3.448 -1.0466,-1.337 -1.8782,-2.8531 -2.509,-4.5868 -0.632,-1.7144 -0.957,-3.7372 -0.957,-6.0299 0,-3.1589 0.6321,-6.0836 1.8948,-8.7742 1.2641,-2.6715 3.0335,-4.9642 5.2725,-6.8961 2.2569,-1.914 4.9463,-3.4122 8.0885,-4.4959 3.1231,-1.0658 6.5711,-1.607 10.3262,-1.607 1.7695,0 3.4673,0.1267 5.055,0.3979 1.5891,0.27 3.0514,0.595 4.3692,1.0108 1.2999,0.3966 2.4194,0.8482 3.3406,1.3536 0.9199,0.4875 1.552,0.9033 1.914,1.2462 0.3608,0.3249 0.6129,0.6857 0.7754,1.0465 0.1624,0.38 0.2354,0.8483 0.2354,1.4087 z" />
    <path
       id="path20"
       style="fill:#dd2b1c;fill-rule:evenodd"
       d="m 260.0983,413.5946 10.5245,29.8975 c 0.3979,1.282 0.6141,2.2927 0.6692,3.0514 0.0537,0.7574 -0.1625,1.3357 -0.65,1.7503 -0.4695,0.3979 -1.2641,0.6499 -2.4015,0.7587 -1.1374,0.1087 -2.7085,0.1625 -4.7121,0.1625 -1.4444,0 -2.5818,-0.0359 -3.4122,-0.1088 -0.8482,-0.0716 -1.4982,-0.1804 -1.9677,-0.3429 -0.4696,-0.1625 -0.8125,-0.3787 -0.9929,-0.6678 -0.1995,-0.2713 -0.362,-0.6321 -0.5066,-1.0466 l -8.3406,-24.8796 -17.5485,24.8796 c -0.325,0.4145 -0.6499,0.7753 -0.9749,1.0466 -0.3429,0.2891 -0.8124,0.5053 -1.4445,0.6678 -0.6141,0.1625 -1.4265,0.2713 -2.4373,0.3429 -1.0107,0.0729 -2.3106,0.1088 -3.8996,0.1088 -1.859,0 -3.3035,-0.0538 -4.3693,-0.1625 -1.0465,-0.1088 -1.7323,-0.3429 -2.0573,-0.7408 -0.307,-0.3787 -0.307,-0.9557 0.0359,-1.6965 0.3428,-0.7408 0.939,-1.7157 1.8231,-2.9606 l 22.5677,-30.1687 -9.5688,-27.821 c -0.3787,-1.2462 -0.6141,-2.2211 -0.6678,-2.9619 -0.0358,-0.7395 0.1625,-1.3178 0.6499,-1.6965 0.4696,-0.3966 1.2641,-0.6321 2.3836,-0.7408 1.1374,-0.1075 2.6893,-0.1625 4.6571,-0.1625 1.4995,0 2.6906,0.0371 3.5568,0.1088 0.8674,0.0729 1.5353,0.1983 2.0227,0.3608 0.5054,0.1804 0.8483,0.4337 1.0645,0.7407 0.1983,0.325 0.38,0.7216 0.5233,1.227 l 7.2761,22.3336 12.6816,-17.8991 -4.8976,-3.2318 20.4336,-7.6331 -0.2469,20.9506 -4.9424,-3.26 -14.8311,19.7939 z" />
    <path
       id="path22"
       style="fill:#dd2b1c;fill-rule:evenodd"
       d="m 531.608,385.7007 c 0,0.2891 -0.0358,0.6857 -0.0908,1.2269 -0.0537,0.5246 -0.1267,1.1016 -0.2341,1.7516 -0.1088,0.632 -0.2534,1.2819 -0.4159,1.9319 -0.1624,0.6499 -0.3608,1.2462 -0.5949,1.8053 -0.2354,0.5424 -0.5066,0.9928 -0.7945,1.3549 -0.2892,0.3428 -0.5962,0.5232 -0.9212,0.5232 -0.4874,0 -1.1016,-0.2175 -1.8411,-0.6678 -0.7408,-0.4516 -1.6619,-0.9212 -2.7264,-1.4445 -1.0837,-0.5233 -2.3478,-0.9928 -3.7909,-1.4444 -1.4445,-0.4517 -3.0694,-0.6679 -4.9117,-0.6679 -1.8949,0 -3.5018,0.27 -4.8196,0.7945 -1.3178,0.5233 -2.4015,1.227 -3.2497,2.0944 -0.8304,0.8662 -1.4624,1.8232 -1.8603,2.9069 -0.4146,1.0645 -0.6141,2.166 -0.6141,3.2497 0,1.2628 0.3249,2.3823 0.957,3.3572 0.632,0.9749 1.4802,1.8603 2.546,2.6906 1.0658,0.8304 2.2748,1.6428 3.6284,2.4194 1.3549,0.7753 2.7444,1.5699 4.1351,2.4194 1.3895,0.8483 2.7802,1.7682 4.1338,2.7802 1.3549,1.0107 2.564,2.166 3.6298,3.4838 1.0644,1.3358 1.9127,2.8352 2.5447,4.5497 0.6321,1.7157 0.957,3.6834 0.957,5.9032 0,3.3048 -0.6678,6.392 -2.0215,9.2259 -1.3369,2.8352 -3.2318,5.2904 -5.687,7.4027 -2.4744,2.0945 -5.435,3.7372 -8.9188,4.9284 -3.4852,1.2103 -7.3477,1.8052 -11.5916,1.8052 -2.2927,0 -4.3871,-0.1804 -6.3369,-0.5591 -1.932,-0.3608 -3.6464,-0.8303 -5.1446,-1.3536 -1.4803,-0.5246 -2.7444,-1.0837 -3.7551,-1.6799 -1.0299,-0.577 -1.7873,-1.1374 -2.2748,-1.6607 -0.4875,-0.5412 -0.7408,-1.3357 -0.7408,-2.4014 0,-0.27 0.0358,-0.7037 0.1088,-1.2641 0.0716,-0.577 0.1624,-1.1912 0.2878,-1.8411 0.1267,-0.6499 0.2713,-1.3178 0.4338,-2.0215 0.1804,-0.687 0.3979,-1.3178 0.632,-1.8782 0.2533,-0.5591 0.5233,-1.0286 0.8124,-1.3894 0.3071,-0.3442 0.6141,-0.5246 0.9749,-0.5246 0.5962,0 1.2999,0.2713 2.1303,0.8304 0.8303,0.5424 1.8603,1.1374 3.1051,1.7873 1.2283,0.6691 2.6907,1.282 4.3872,1.8424 1.6978,0.5591 3.7192,0.8482 6.0849,0.8482 2.0765,0 3.9176,-0.2712 5.4887,-0.7945 1.5699,-0.5233 2.8877,-1.2461 3.9534,-2.1481 1.0645,-0.9212 1.859,-1.9678 2.4015,-3.1781 0.5591,-1.2091 0.8303,-2.5269 0.8303,-3.9713 0,-1.2999 -0.3249,-2.4552 -0.957,-3.4302 -0.632,-0.9928 -1.4624,-1.8961 -2.5102,-2.7264 -1.0287,-0.8304 -2.2198,-1.6249 -3.5376,-2.3657 -1.3178,-0.7395 -2.6727,-1.5161 -4.0442,-2.3643 -1.3729,-0.8483 -2.7265,-1.7695 -4.0443,-2.7623 -1.3178,-0.9749 -2.5102,-2.1302 -3.5389,-3.448 -1.0465,-1.337 -1.8782,-2.8531 -2.5089,-4.5868 -0.6321,-1.7144 -0.957,-3.7372 -0.957,-6.0299 0,-3.1589 0.632,-6.0836 1.8948,-8.7742 1.2641,-2.6715 3.0335,-4.9642 5.2725,-6.8961 2.2569,-1.914 4.9462,-3.4122 8.0885,-4.4959 3.1231,-1.0658 6.5711,-1.607 10.3262,-1.607 1.7694,0 3.4672,0.1267 5.055,0.3979 1.589,0.27 3.0514,0.595 4.3692,1.0108 1.2999,0.3966 2.4194,0.8482 3.3406,1.3536 0.9199,0.4875 1.5519,0.9033 1.914,1.2462 0.3608,0.3249 0.6128,0.6857 0.7753,1.0465 0.1625,0.38 0.2354,0.8483 0.2354,1.4087 z" />
    <g
       id="g24">
      <path
         id="path26"
         style="fill:#151616;fill-rule:evenodd"
         d="m 77.6005,473.5841 c 0,0.1394 -0.0256,0.2533 -0.0806,0.3378 -0.0551,0.0895 -0.1472,0.156 -0.279,0.2111 -0.1305,0.055 -0.3121,0.0934 -0.5309,0.1138 -0.2239,0.0218 -0.5067,0.0295 -0.8444,0.0295 -0.3544,0 -0.6334,-0.008 -0.8317,-0.0295 -0.2021,-0.0204 -0.3582,-0.0588 -0.4682,-0.1049 -0.1139,-0.0512 -0.1855,-0.1139 -0.2239,-0.1855 -0.0384,-0.0768 -0.064,-0.1689 -0.0806,-0.2879 l -0.6078,-3.5657 c -0.0882,-0.5233 -0.2021,-0.9583 -0.3326,-1.3089 -0.1318,-0.3505 -0.3045,-0.6371 -0.5118,-0.8559 -0.2098,-0.2162 -0.4593,-0.3723 -0.742,-0.4644 -0.2828,-0.0896 -0.6206,-0.1356 -1.0044,-0.1356 l -0.7177,0 -1.2871,6.4201 c -0.0167,0.0883 -0.0589,0.1638 -0.1267,0.2277 -0.0678,0.0627 -0.165,0.1139 -0.3045,0.16 -0.1343,0.046 -0.3071,0.0806 -0.5182,0.101 -0.2111,0.0218 -0.4734,0.0295 -0.7894,0.0295 -0.3211,0 -0.5783,-0.008 -0.7817,-0.0295 -0.2021,-0.0204 -0.3582,-0.055 -0.4759,-0.101 -0.1139,-0.0461 -0.1907,-0.0973 -0.2329,-0.16 -0.0422,-0.0639 -0.0499,-0.1394 -0.0256,-0.2277 l 3.0399,-15.1317 c 0.0077,-0.0883 0.0461,-0.1638 0.1177,-0.2278 0.0678,-0.0626 0.1689,-0.1138 0.3032,-0.156 0.1357,-0.0423 0.3084,-0.0717 0.5195,-0.0922 0.2073,-0.0217 0.4734,-0.0307 0.7894,-0.0307 0.3173,0 0.5783,0.009 0.7804,0.0307 0.2035,0.0205 0.3634,0.0499 0.4811,0.0922 0.1152,0.0422 0.1945,0.0934 0.229,0.156 0.0371,0.064 0.0499,0.1395 0.0333,0.2278 l -1.2065,6.0017 0.7165,0 c 0.3595,0 0.6883,-0.0499 0.98,-0.1471 0.2904,-0.0972 0.5693,-0.2533 0.8316,-0.4683 0.261,-0.2162 0.5182,-0.4938 0.7715,-0.8367 0.2495,-0.3365 0.5105,-0.7587 0.7805,-1.2615 l 1.7221,-3.1909 c 0.0678,-0.1139 0.1394,-0.2111 0.22,-0.2866 0.0845,-0.0806 0.1983,-0.1433 0.3416,-0.1855 0.1433,-0.0473 0.325,-0.0806 0.5451,-0.1011 0.2239,-0.0217 0.5105,-0.0307 0.861,-0.0307 0.325,0 0.5898,0.009 0.7933,0.0307 0.2059,0.0205 0.3633,0.0499 0.4682,0.0922 0.1049,0.0422 0.1779,0.0882 0.2111,0.1433 0.0333,0.055 0.0461,0.11 0.0461,0.165 0,0.1267 -0.0333,0.2661 -0.1011,0.426 -0.0716,0.16 -0.1893,0.38 -0.3544,0.65 l -1.6338,2.8403 c -0.3032,0.5361 -0.5949,0.9916 -0.8649,1.3677 -0.2738,0.3762 -0.5437,0.6922 -0.8099,0.9493 -0.2699,0.2623 -0.5412,0.4734 -0.8188,0.6423 -0.2751,0.1689 -0.5706,0.3083 -0.8828,0.4133 l 0,0.0128 c 0.2955,0.1394 0.5527,0.2993 0.7766,0.4721 0.2201,0.174 0.4184,0.3927 0.5873,0.6627 0.1688,0.2661 0.3121,0.5949 0.435,0.9877 0.1266,0.3928 0.2443,0.8777 0.3582,1.456 l 0.6333,3.3226 c 0.0371,0.1638 0.0678,0.3161 0.0793,0.4504 0.0128,0.1356 0.018,0.2623 0.018,0.38 z m 17.7724,-10.0319 c 0,0.7254 -0.0678,1.502 -0.1983,2.3259 -0.1305,0.8227 -0.3467,1.6415 -0.6372,2.4514 -0.2917,0.8112 -0.6793,1.5878 -1.1566,2.3298 -0.4772,0.7434 -1.0593,1.3972 -1.7425,1.9588 -0.6845,0.5655 -1.4906,1.0172 -2.4143,1.3549 -0.925,0.3378 -1.9754,0.5067 -3.1538,0.5067 -0.9992,0 -1.882,-0.11 -2.6458,-0.3339 -0.7638,-0.2239 -1.4099,-0.5655 -1.9332,-1.0261 -0.5233,-0.4594 -0.9199,-1.0415 -1.1899,-1.7426 -0.2661,-0.7011 -0.4017,-1.5238 -0.4017,-2.4731 0,-0.7728 0.0678,-1.5827 0.2034,-2.4271 0.1395,-0.8444 0.3544,-1.6709 0.6576,-2.4859 0.3007,-0.8099 0.6973,-1.5827 1.1822,-2.317 0.4849,-0.7344 1.0722,-1.3805 1.7554,-1.9409 0.6883,-0.5578 1.4867,-1.0005 2.4014,-1.3255 0.9161,-0.325 1.9588,-0.49 3.1193,-0.49 1.0005,0 1.8833,0.1139 2.642,0.3416 0.7638,0.2239 1.4061,0.5706 1.9293,1.0389 0.5195,0.4644 0.911,1.0504 1.1822,1.7592 0.2649,0.7101 0.4005,1.5417 0.4005,2.4949 z m -3.4442,0.3045 c 0,-0.5067 -0.055,-0.9634 -0.1689,-1.3677 -0.11,-0.4095 -0.2866,-0.7562 -0.5361,-1.0338 -0.2443,-0.2789 -0.5693,-0.499 -0.9698,-0.65 -0.3979,-0.1522 -0.8866,-0.229 -1.4649,-0.229 -0.7178,0 -1.3472,0.1395 -1.891,0.4146 -0.545,0.2776 -1.021,0.6371 -1.4265,1.0836 -0.4005,0.444 -0.7434,0.9545 -1.0134,1.5238 -0.2737,0.5745 -0.4887,1.1566 -0.6537,1.7477 -0.1689,0.5873 -0.2828,1.1656 -0.3544,1.7259 -0.0717,0.5579 -0.1062,1.0517 -0.1062,1.4688 0,0.5105 0.055,0.9711 0.1689,1.3767 0.11,0.4004 0.2917,0.742 0.545,1.0171 0.2482,0.2776 0.5783,0.4887 0.9749,0.6372 0.4005,0.1471 0.8943,0.2239 1.4816,0.2239 0.7088,0 1.3331,-0.1357 1.8782,-0.4095 0.5437,-0.2699 1.0171,-0.6294 1.4176,-1.0683 0.3966,-0.4427 0.7344,-0.9455 1.0043,-1.5148 0.2751,-0.5706 0.4939,-1.1476 0.6589,-1.7311 0.1651,-0.5859 0.2828,-1.1604 0.3506,-1.7221 0.0716,-0.5603 0.1049,-1.0593 0.1049,-1.493 z m 23.0615,9.9142 c -0.0243,0.0793 -0.0626,0.1561 -0.1087,0.2226 -0.0512,0.064 -0.1356,0.119 -0.2533,0.1612 -0.1229,0.0371 -0.2828,0.0717 -0.49,0.0921 -0.2073,0.0218 -0.4606,0.0295 -0.7677,0.0295 -0.3211,0 -0.5783,-0.008 -0.7766,-0.0295 -0.1983,-0.0204 -0.3506,-0.055 -0.4606,-0.0921 -0.1049,-0.0422 -0.1727,-0.0972 -0.2021,-0.1612 -0.0295,-0.0665 -0.0346,-0.1433 -0.0167,-0.2226 l 2.5947,-13.0258 -0.0256,0 -7.2582,13.013 c -0.0972,0.206 -0.2917,0.3454 -0.5744,0.4132 -0.2828,0.0717 -0.6883,0.105 -1.2078,0.105 -0.5361,0 -0.9199,-0.0461 -1.1553,-0.1433 -0.2329,-0.0922 -0.3557,-0.2111 -0.3634,-0.3506 l -1.8782,-13.0501 -0.0255,0 -2.6088,13.0386 c -0.0166,0.0793 -0.055,0.1561 -0.1049,0.2226 -0.055,0.064 -0.1395,0.119 -0.2623,0.1612 -0.1177,0.0371 -0.2776,0.0717 -0.481,0.0921 -0.2022,0.0218 -0.4593,0.0295 -0.7715,0.0295 -0.3135,0 -0.5706,-0.008 -0.769,-0.0295 -0.1983,-0.0204 -0.3505,-0.055 -0.4554,-0.0921 -0.1101,-0.0422 -0.1779,-0.0972 -0.2111,-0.1612 -0.0333,-0.0665 -0.0384,-0.1433 -0.0128,-0.2226 l 2.8454,-14.2617 c 0.0422,-0.2073 0.1049,-0.3928 0.1894,-0.5578 0.0882,-0.1638 0.1944,-0.3033 0.3249,-0.4133 0.1267,-0.1139 0.2738,-0.1983 0.4389,-0.2533 0.165,-0.0589 0.3416,-0.0883 0.5322,-0.0883 l 2.0253,0 c 0.3634,0 0.6717,0.0294 0.9289,0.0921 0.2533,0.064 0.4644,0.1689 0.6282,0.3173 0.165,0.1471 0.2917,0.3416 0.38,0.5783 0.0844,0.2405 0.1433,0.531 0.1778,0.8687 l 1.5443,9.5215 0.0639,0 5.4913,-9.5215 c 0.1638,-0.3249 0.3288,-0.6026 0.4926,-0.8354 0.165,-0.2367 0.3467,-0.4299 0.5489,-0.5822 0.2034,-0.1522 0.4273,-0.2661 0.6755,-0.3339 0.2444,-0.0716 0.5399,-0.1049 0.8777,-0.1049 l 2.3004,0 c 0.2072,0 0.3838,0.0294 0.5322,0.0883 0.1472,0.055 0.2661,0.1394 0.3506,0.2533 0.0883,0.11 0.1382,0.2444 0.1599,0.4056 0.0205,0.1599 0.0166,0.3454 -0.0166,0.5527 l -2.8455,14.2745 z m 20.8124,-9.4166 c 0,0.5822 -0.0589,1.1694 -0.1727,1.7477 -0.119,0.5822 -0.3045,1.1438 -0.5579,1.6748 -0.2533,0.5361 -0.5859,1.0427 -1.0005,1.511 -0.4094,0.4683 -0.9071,0.8866 -1.4931,1.2538 -0.5834,0.3672 -1.2666,0.6756 -2.0521,0.9161 -0.7805,0.2444 -1.6671,0.4043 -2.6625,0.4887 l -0.3672,1.8322 c -0.0256,0.0844 -0.0678,0.1561 -0.1318,0.22 -0.0627,0.0589 -0.1561,0.1139 -0.2866,0.1561 -0.1266,0.0371 -0.2955,0.0717 -0.5066,0.0921 -0.2111,0.0218 -0.4721,0.0295 -0.7843,0.0295 -0.3212,0 -0.5834,-0.008 -0.7856,-0.0295 -0.2021,-0.0204 -0.3582,-0.055 -0.4772,-0.0921 -0.1139,-0.0422 -0.1855,-0.0972 -0.2188,-0.1561 -0.0345,-0.0639 -0.0422,-0.1356 -0.0256,-0.22 l 0.3672,-1.8322 c -0.9659,-0.0844 -1.7937,-0.2443 -2.4859,-0.481 -0.696,-0.2406 -1.2666,-0.5566 -1.7093,-0.9532 -0.4478,-0.3966 -0.7766,-0.8649 -0.9916,-1.4061 -0.2162,-0.5361 -0.3211,-1.1476 -0.3211,-1.8232 0,-0.5783 0.055,-1.1514 0.1689,-1.7297 0.11,-0.5783 0.2955,-1.131 0.5489,-1.6633 0.2571,-0.5322 0.5859,-1.0338 0.9954,-1.511 0.4094,-0.4734 0.9083,-0.8943 1.4982,-1.2666 0.591,-0.371 1.2794,-0.6794 2.0598,-0.9276 0.7856,-0.2456 1.6799,-0.4094 2.6894,-0.4938 l 0.3454,-1.7349 c 0.0166,-0.0845 0.055,-0.1561 0.119,-0.215 0.0627,-0.0639 0.1599,-0.11 0.2904,-0.1446 0.1356,-0.0332 0.3045,-0.0588 0.5156,-0.0793 0.2111,-0.0217 0.476,-0.0294 0.7882,-0.0294 0.3134,0 0.5706,0.008 0.7689,0.0294 0.2021,0.0205 0.3582,0.0461 0.4721,0.0793 0.119,0.0346 0.1945,0.0807 0.2277,0.1446 0.0384,0.0589 0.0512,0.1305 0.0346,0.215 l -0.3506,1.7349 c 1.021,0.0844 1.8782,0.2571 2.5793,0.5181 0.6999,0.2661 1.2654,0.6001 1.6965,1.0005 0.4299,0.4056 0.7421,0.8739 0.9289,1.4061 0.1893,0.531 0.2866,1.1093 0.2866,1.7387 z m -3.2421,0.3839 c 0,-0.3966 -0.0499,-0.751 -0.1561,-1.0594 -0.101,-0.3122 -0.261,-0.5744 -0.4849,-0.7894 -0.2277,-0.2149 -0.5156,-0.3838 -0.8648,-0.5143 -0.3506,-0.1267 -0.769,-0.2034 -1.2577,-0.2278 l -1.4445,7.3478 c 0.545,-0.0551 1.03,-0.1779 1.456,-0.3634 0.4222,-0.1855 0.7894,-0.4132 1.0977,-0.6755 0.3122,-0.2661 0.5745,-0.5566 0.7856,-0.8815 0.2111,-0.3212 0.3838,-0.65 0.5143,-0.9839 0.1267,-0.3378 0.2201,-0.6628 0.2751,-0.9788 0.0499,-0.3211 0.0793,-0.6115 0.0793,-0.8738 z m -5.925,-2.596 c -0.5616,0.0589 -1.0555,0.1779 -1.4854,0.3544 -0.4273,0.1779 -0.7983,0.3967 -1.1143,0.6551 -0.3122,0.261 -0.5745,0.5527 -0.7856,0.8687 -0.2073,0.3173 -0.38,0.6461 -0.5105,0.9801 -0.1305,0.3326 -0.2239,0.6614 -0.2789,0.9915 -0.055,0.325 -0.0793,0.6244 -0.0793,0.8943 0,0.3672 0.0422,0.7011 0.1305,1.0044 0.0882,0.3083 0.2367,0.5706 0.4516,0.7932 0.2149,0.2239 0.5066,0.4056 0.8649,0.5412 0.3582,0.1343 0.815,0.2239 1.3638,0.2661 l 1.4432,-7.349 z m 26.1258,1.41 c 0,0.7254 -0.0678,1.502 -0.1983,2.3259 -0.1305,0.8227 -0.3467,1.6415 -0.6372,2.4514 -0.2917,0.8112 -0.6793,1.5878 -1.1566,2.3298 -0.4772,0.7434 -1.0593,1.3972 -1.7425,1.9588 -0.6845,0.5655 -1.4905,1.0172 -2.4143,1.3549 -0.925,0.3378 -1.9754,0.5067 -3.1538,0.5067 -0.9992,0 -1.882,-0.11 -2.6458,-0.3339 -0.7638,-0.2239 -1.4099,-0.5655 -1.9332,-1.0261 -0.5233,-0.4594 -0.9199,-1.0415 -1.1899,-1.7426 -0.2661,-0.7011 -0.4017,-1.5238 -0.4017,-2.4731 0,-0.7728 0.0678,-1.5827 0.2034,-2.4271 0.1395,-0.8444 0.3544,-1.6709 0.6576,-2.4859 0.3007,-0.8099 0.6973,-1.5827 1.1822,-2.317 0.4849,-0.7344 1.0722,-1.3805 1.7554,-1.9409 0.6883,-0.5578 1.4867,-1.0005 2.4015,-1.3255 0.916,-0.325 1.9588,-0.49 3.1192,-0.49 1.0005,0 1.8833,0.1139 2.642,0.3416 0.7638,0.2239 1.4061,0.5706 1.9294,1.0389 0.5194,0.4644 0.9109,1.0504 1.1821,1.7592 0.2649,0.7101 0.4005,1.5417 0.4005,2.4949 z m -3.4442,0.3045 c 0,-0.5067 -0.055,-0.9634 -0.1689,-1.3677 -0.11,-0.4095 -0.2866,-0.7562 -0.5361,-1.0338 -0.2443,-0.2789 -0.5693,-0.499 -0.9698,-0.65 -0.3979,-0.1522 -0.8866,-0.229 -1.4649,-0.229 -0.7177,0 -1.3472,0.1395 -1.891,0.4146 -0.545,0.2776 -1.021,0.6371 -1.4265,1.0836 -0.4005,0.444 -0.7434,0.9545 -1.0133,1.5238 -0.2738,0.5745 -0.4888,1.1566 -0.6538,1.7477 -0.1689,0.5873 -0.2828,1.1656 -0.3544,1.7259 -0.0717,0.5579 -0.1062,1.0517 -0.1062,1.4688 0,0.5105 0.055,0.9711 0.1689,1.3767 0.11,0.4004 0.2917,0.742 0.545,1.0171 0.2482,0.2776 0.5783,0.4887 0.9749,0.6372 0.4005,0.1471 0.8943,0.2239 1.4816,0.2239 0.7088,0 1.3332,-0.1357 1.8782,-0.4095 0.5437,-0.2699 1.0171,-0.6294 1.4176,-1.0683 0.3966,-0.4427 0.7344,-0.9455 1.0043,-1.5148 0.2751,-0.5706 0.4939,-1.1476 0.6589,-1.7311 0.1651,-0.5859 0.2828,-1.1604 0.3506,-1.7221 0.0716,-0.5603 0.1049,-1.0593 0.1049,-1.493 z m 17.5882,-1.7349 c 0,0.4593 -0.0512,0.9403 -0.1561,1.447 -0.1011,0.5028 -0.2699,0.9967 -0.499,1.4777 -0.2315,0.4849 -0.5309,0.9404 -0.8981,1.3754 -0.3672,0.4312 -0.815,0.815 -1.3511,1.1489 -0.5309,0.3365 -1.1476,0.5988 -1.8487,0.7933 -0.6999,0.1931 -1.5238,0.2904 -2.4732,0.2904 l -1.6709,0 -1.021,5.1164 c -0.0128,0.0793 -0.055,0.1561 -0.1228,0.2226 -0.0678,0.064 -0.1689,0.119 -0.3083,0.1612 -0.1433,0.0371 -0.3212,0.0717 -0.5361,0.0921 -0.2111,0.0218 -0.4772,0.0295 -0.7894,0.0295 -0.3084,0 -0.5566,-0.008 -0.76,-0.0295 -0.2021,-0.0204 -0.3582,-0.055 -0.4759,-0.0921 -0.1139,-0.0422 -0.1907,-0.0934 -0.2329,-0.1561 -0.0422,-0.0639 -0.0499,-0.1394 -0.0256,-0.2277 l 2.8877,-14.4101 c 0.0716,-0.3877 0.2316,-0.6794 0.481,-0.8739 0.2444,-0.1932 0.5489,-0.2904 0.9071,-0.2904 l 3.4993,0 c 0.4298,0 0.815,0.0128 1.1514,0.0422 0.3378,0.0294 0.6717,0.0755 1.0006,0.1433 0.5028,0.0972 0.9544,0.2533 1.3549,0.4606 0.4017,0.2022 0.7382,0.4593 1.0222,0.7715 0.2776,0.3083 0.4926,0.6717 0.641,1.0888 0.1471,0.4184 0.2239,0.8866 0.2239,1.4189 z m -3.4186,0.3672 c 0,-0.3967 -0.0934,-0.7396 -0.2828,-1.03 -0.1906,-0.2866 -0.4861,-0.49 -0.8776,-0.6077 -0.174,-0.055 -0.3672,-0.0972 -0.5835,-0.119 -0.2149,-0.0205 -0.4516,-0.0294 -0.7177,-0.0294 l -1.4304,0 -1.0888,5.4452 1.4905,0 c 0.4721,0 0.8777,-0.055 1.2104,-0.1689 0.3377,-0.11 0.6294,-0.2572 0.8828,-0.4388 0.2533,-0.1817 0.4682,-0.3966 0.6461,-0.6461 0.1765,-0.2495 0.3198,-0.5067 0.4337,-0.7805 0.11,-0.2751 0.1945,-0.5489 0.2405,-0.8226 0.0512,-0.279 0.0768,-0.5451 0.0768,-0.8022 z m 17.1775,-3.7731 c 0,0.0589 -0.008,0.151 -0.0205,0.2777 -0.0128,0.1266 -0.0345,0.2699 -0.0588,0.426 -0.0307,0.1574 -0.0678,0.3212 -0.1139,0.49 -0.0422,0.1689 -0.0972,0.325 -0.1612,0.4645 -0.0589,0.1394 -0.1343,0.2533 -0.2188,0.3467 -0.0895,0.0883 -0.1817,0.1343 -0.2789,0.1343 l -4.0097,0 -2.587,12.903 c -0.0256,0.0793 -0.0678,0.1561 -0.1356,0.2226 -0.0627,0.064 -0.1638,0.119 -0.2994,0.1612 -0.1395,0.0384 -0.3122,0.0717 -0.5194,0.0973 -0.2111,0.0243 -0.476,0.0371 -0.7971,0.0371 -0.3122,0 -0.5745,-0.0128 -0.7805,-0.0371 -0.2072,-0.0256 -0.3633,-0.0589 -0.4772,-0.0973 -0.11,-0.0422 -0.1855,-0.0972 -0.2239,-0.1612 -0.0333,-0.0665 -0.046,-0.1433 -0.0294,-0.2226 l 2.5831,-12.903 -3.9841,0 c -0.1228,0 -0.2072,-0.046 -0.2533,-0.1343 -0.0473,-0.0934 -0.0678,-0.2162 -0.0678,-0.3723 0,-0.0678 0.004,-0.1638 0.0166,-0.2904 0.0128,-0.1267 0.0333,-0.2713 0.064,-0.435 0.0294,-0.1613 0.0627,-0.325 0.1087,-0.4939 0.0474,-0.1689 0.1024,-0.3211 0.1651,-0.4644 0.0678,-0.1395 0.1394,-0.2534 0.2239,-0.3378 0.0806,-0.0883 0.1727,-0.1305 0.2699,-0.1305 l 11.273,0 c 0.1011,0 0.1779,0.0461 0.2329,0.1343 0.0499,0.0934 0.0793,0.2201 0.0793,0.3851 z m 11.4175,15.055 c -0.0166,0.0793 -0.0588,0.1561 -0.1228,0.2226 -0.0678,0.064 -0.1689,0.119 -0.2994,0.1612 -0.1305,0.0371 -0.3045,0.0717 -0.5194,0.0921 -0.215,0.0218 -0.4811,0.0295 -0.7933,0.0295 -0.3121,0 -0.5693,-0.008 -0.7766,-0.0295 -0.2072,-0.0204 -0.3633,-0.055 -0.4772,-0.0921 -0.11,-0.0422 -0.1855,-0.0972 -0.2277,-0.1612 -0.0384,-0.0665 -0.0461,-0.1433 -0.0205,-0.2226 l 1.2909,-6.4828 -5.98,0 -1.2999,6.4828 c -0.0128,0.0793 -0.055,0.1561 -0.1228,0.2226 -0.0678,0.064 -0.1689,0.119 -0.3045,0.1612 -0.1343,0.0371 -0.307,0.0717 -0.5182,0.0921 -0.2111,0.0218 -0.4733,0.0295 -0.7894,0.0295 -0.3211,0 -0.5783,-0.008 -0.7817,-0.0295 -0.2021,-0.0204 -0.3582,-0.055 -0.4759,-0.0921 -0.1139,-0.0422 -0.1907,-0.0972 -0.2329,-0.1612 -0.0422,-0.0665 -0.0499,-0.1433 -0.0256,-0.2226 l 3.0399,-15.1445 c 0.008,-0.0793 0.0461,-0.1561 0.1088,-0.2239 0.0678,-0.0627 0.165,-0.1177 0.2955,-0.1599 0.1318,-0.0384 0.3045,-0.0717 0.5156,-0.0922 0.215,-0.0217 0.476,-0.0307 0.7843,-0.0307 0.3173,0 0.5783,0.009 0.7894,0.0307 0.2073,0.0205 0.3672,0.0538 0.4862,0.0922 0.1139,0.0422 0.1932,0.0972 0.2277,0.1599 0.0371,0.0678 0.0499,0.1446 0.0333,0.2239 l -1.1822,5.9007 5.9813,0 1.1732,-5.9007 c 0.0167,-0.0793 0.0589,-0.1561 0.1267,-0.2239 0.0627,-0.0627 0.1651,-0.1177 0.2956,-0.1599 0.1305,-0.0384 0.3032,-0.0717 0.5194,-0.0922 0.2111,-0.0217 0.4759,-0.0307 0.7881,-0.0307 0.3135,0 0.5745,0.009 0.7817,0.0307 0.206,0.0205 0.3672,0.0538 0.4811,0.0922 0.1177,0.0422 0.1945,0.0972 0.2316,0.1599 0.0384,0.0678 0.0473,0.1446 0.0294,0.2239 l -3.0297,15.1445 z m 28.4339,0.0115 c -0.0179,0.0806 -0.0601,0.1523 -0.119,0.2162 -0.0627,0.0627 -0.1599,0.1139 -0.2955,0.1561 -0.1305,0.0371 -0.2994,0.0717 -0.5067,0.0921 -0.2111,0.0218 -0.4721,0.0295 -0.7971,0.0295 -0.3121,0 -0.5693,-0.008 -0.7727,-0.0295 -0.206,-0.0204 -0.3672,-0.055 -0.4811,-0.0921 -0.1139,-0.0422 -0.1945,-0.0934 -0.2405,-0.1561 -0.0423,-0.0639 -0.055,-0.1356 -0.0295,-0.2162 l 2.5832,-12.8761 -5.9685,0 -2.5819,12.8761 c -0.0128,0.0806 -0.055,0.1523 -0.1228,0.2162 -0.0678,0.0627 -0.1689,0.1139 -0.3045,0.1561 -0.1343,0.0371 -0.3122,0.0717 -0.5271,0.0921 -0.215,0.0218 -0.4773,0.0295 -0.7933,0.0295 -0.3173,0 -0.5783,-0.008 -0.7804,-0.0295 -0.2034,-0.0204 -0.3595,-0.055 -0.4772,-0.0921 -0.1139,-0.0422 -0.1907,-0.0934 -0.2278,-0.1561 -0.0345,-0.0639 -0.0422,-0.1356 -0.0179,-0.2162 l 2.9133,-14.5611 c 0.0665,-0.3454 0.2021,-0.6026 0.4094,-0.7715 0.2111,-0.1689 0.4554,-0.2533 0.742,-0.2533 l 10.5808,0 c 0.2956,0 0.5118,0.0844 0.6423,0.2533 0.1344,0.1689 0.1599,0.4261 0.0883,0.7715 l -2.9158,14.5611 z m 16.7079,-0.7932 c 0.0423,0.2993 0.0602,0.5322 0.0551,0.7049 -0.004,0.1727 -0.0589,0.3045 -0.1689,0.3928 -0.1139,0.0844 -0.2905,0.1395 -0.5438,0.1599 -0.2533,0.0218 -0.6,0.0295 -1.0389,0.0295 -0.3198,0 -0.5783,-0.004 -0.7804,-0.0167 -0.1983,-0.0128 -0.3544,-0.0384 -0.4644,-0.0716 -0.105,-0.0294 -0.1817,-0.0806 -0.2239,-0.1472 -0.0423,-0.0639 -0.0678,-0.156 -0.0755,-0.2699 l -0.435,-3.2165 -5.9928,0 -1.6505,3.1397 c -0.0588,0.119 -0.1228,0.215 -0.1983,0.2917 -0.0716,0.0794 -0.1817,0.1395 -0.3211,0.1817 -0.1395,0.0371 -0.3288,0.0665 -0.5617,0.0844 -0.2354,0.0167 -0.531,0.0244 -0.8854,0.0244 -0.3799,0 -0.6793,-0.0128 -0.8904,-0.0371 -0.2111,-0.0256 -0.3506,-0.0845 -0.4222,-0.1779 -0.0679,-0.0972 -0.0768,-0.2277 -0.0256,-0.4004 0.055,-0.1779 0.1599,-0.4056 0.316,-0.6973 l 7.7533,-14.2016 c 0.0844,-0.1395 0.1689,-0.2533 0.2495,-0.3378 0.0844,-0.0882 0.2021,-0.1522 0.3582,-0.1983 0.1523,-0.046 0.3595,-0.0755 0.6256,-0.0883 0.261,-0.0128 0.6026,-0.0179 1.0287,-0.0179 0.4823,0 0.861,0.005 1.1438,0.0179 0.2789,0.0128 0.499,0.0423 0.6551,0.0883 0.156,0.0461 0.2571,0.1139 0.3032,0.2022 0.0512,0.0934 0.0844,0.2162 0.1011,0.3723 l 2.0892,14.1888 z m -4.8618,-11.7374 -0.0127,0 -3.562,6.795 4.4908,0 -0.9161,-6.795 z m 19.7441,-1.4982 c 0,0.2277 -0.0371,0.5399 -0.1177,0.9288 -0.0755,0.3877 -0.1779,0.6999 -0.2956,0.9327 -0.1177,0.2367 -0.2533,0.3544 -0.4004,0.3544 -0.1101,0 -0.2367,-0.0678 -0.3851,-0.2073 -0.1472,-0.1343 -0.3417,-0.2827 -0.5822,-0.4388 -0.2367,-0.1561 -0.5437,-0.3032 -0.9109,-0.4388 -0.3723,-0.1395 -0.8368,-0.206 -1.3844,-0.206 -0.6128,0 -1.1694,0.1215 -1.6722,0.362 -0.5015,0.2457 -0.9531,0.5656 -1.3459,0.9673 -0.3966,0.3966 -0.7434,0.8559 -1.0389,1.3754 -0.2994,0.5194 -0.5438,1.0555 -0.7382,1.6172 -0.1945,0.5603 -0.3378,1.1182 -0.4299,1.6747 -0.0973,0.5527 -0.1446,1.0722 -0.1446,1.5494 0,0.5732 0.0729,1.0798 0.2162,1.5187 0.1472,0.435 0.3544,0.7983 0.6244,1.0849 0.2738,0.2879 0.6077,0.5067 1.0043,0.65 0.3967,0.1433 0.8406,0.2149 1.3383,0.2149 0.5821,0 1.085,-0.0627 1.502,-0.1855 0.4133,-0.1216 0.769,-0.261 1.0645,-0.4094 0.2905,-0.1472 0.5348,-0.2866 0.7255,-0.4094 0.1944,-0.1216 0.371,-0.1856 0.5271,-0.1856 0.1062,0 0.1778,0.0384 0.2111,0.119 0.0384,0.0755 0.055,0.1855 0.055,0.3288 0,0.0551 -0.009,0.1433 -0.0256,0.2572 -0.0166,0.1177 -0.0371,0.2444 -0.0588,0.3928 -0.0256,0.1433 -0.0551,0.2994 -0.0883,0.4683 -0.0346,0.1688 -0.0717,0.3249 -0.1101,0.4733 -0.0422,0.1433 -0.0882,0.2738 -0.1433,0.3967 -0.055,0.1177 -0.1266,0.2226 -0.2149,0.3121 -0.0934,0.0922 -0.27,0.2111 -0.5322,0.3544 -0.2623,0.1433 -0.5873,0.279 -0.9622,0.4005 -0.3799,0.1267 -0.8098,0.2329 -1.2871,0.3173 -0.4772,0.0883 -0.9877,0.1305 -1.5327,0.1305 -0.8943,0 -1.7042,-0.1177 -2.4271,-0.3582 -0.7216,-0.2419 -1.3331,-0.6001 -1.8359,-1.0901 -0.5016,-0.4849 -0.8905,-1.0926 -1.1605,-1.827 -0.2738,-0.7344 -0.4094,-1.5916 -0.4094,-2.5704 0,-0.7676 0.0806,-1.5621 0.2367,-2.3925 0.1561,-0.8278 0.3928,-1.6377 0.7088,-2.4271 0.3173,-0.7894 0.7178,-1.5404 1.2078,-2.2492 0.4849,-0.7101 1.0593,-1.3306 1.7221,-1.8615 0.6627,-0.5284 1.4176,-0.9545 2.262,-1.2667 0.8444,-0.3121 1.781,-0.4682 2.8109,-0.4682 0.5783,0 1.122,0.0588 1.6376,0.1816 0.5144,0.1178 0.966,0.2777 1.346,0.4773 0.3838,0.1983 0.6538,0.3748 0.806,0.5348 0.1523,0.1612 0.2278,0.3672 0.2278,0.6167 z m 12.8773,13.2356 c 0.0423,0.2993 0.0602,0.5322 0.0551,0.7049 -0.004,0.1727 -0.0589,0.3045 -0.1689,0.3928 -0.1139,0.0844 -0.2905,0.1395 -0.5438,0.1599 -0.2533,0.0218 -0.6,0.0295 -1.0389,0.0295 -0.3198,0 -0.5783,-0.004 -0.7804,-0.0167 -0.1983,-0.0128 -0.3544,-0.0384 -0.4644,-0.0716 -0.105,-0.0294 -0.1817,-0.0806 -0.2239,-0.1472 -0.0423,-0.0639 -0.0679,-0.156 -0.0755,-0.2699 l -0.435,-3.2165 -5.9928,0 -1.6505,3.1397 c -0.0588,0.119 -0.1228,0.215 -0.1983,0.2917 -0.0717,0.0794 -0.1817,0.1395 -0.3211,0.1817 -0.1395,0.0371 -0.3289,0.0665 -0.5617,0.0844 -0.2354,0.0167 -0.531,0.0244 -0.8854,0.0244 -0.38,0 -0.6793,-0.0128 -0.8904,-0.0371 -0.2111,-0.0256 -0.3506,-0.0845 -0.4223,-0.1779 -0.0678,-0.0972 -0.0767,-0.2277 -0.0255,-0.4004 0.055,-0.1779 0.1599,-0.4056 0.316,-0.6973 l 7.7533,-14.2016 c 0.0844,-0.1395 0.1689,-0.2533 0.2495,-0.3378 0.0844,-0.0882 0.2021,-0.1522 0.3582,-0.1983 0.1522,-0.046 0.3595,-0.0755 0.6256,-0.0883 0.261,-0.0128 0.6026,-0.0179 1.0287,-0.0179 0.4823,0 0.861,0.005 1.1438,0.0179 0.2789,0.0128 0.499,0.0423 0.655,0.0883 0.1561,0.0461 0.2572,0.1139 0.3033,0.2022 0.0511,0.0934 0.0844,0.2162 0.101,0.3723 l 2.0893,14.1888 z m -4.8618,-11.7374 -0.0128,0 -3.5619,6.795 4.4908,0 -0.9161,-6.795 z" />
      <path
         id="path28"
         style="fill:#151616;fill-rule:evenodd"
         d="m 285.5217,473.5598 c 0,0.1471 -0.0333,0.2648 -0.0934,0.3582 -0.0627,0.0883 -0.1638,0.1599 -0.3032,0.215 -0.1395,0.055 -0.325,0.0934 -0.5527,0.1138 -0.2239,0.0218 -0.5067,0.0295 -0.8483,0.0295 -0.3429,0 -0.6205,-0.008 -0.8316,-0.0295 -0.2111,-0.0204 -0.3723,-0.055 -0.4811,-0.101 -0.1139,-0.0461 -0.1906,-0.105 -0.2277,-0.1856 -0.0422,-0.0754 -0.0678,-0.1727 -0.0768,-0.2917 l -0.4299,-3.654 c -0.0588,-0.5028 -0.1433,-0.9289 -0.2571,-1.2705 -0.119,-0.3428 -0.2751,-0.6205 -0.4734,-0.8277 -0.1983,-0.2111 -0.435,-0.3634 -0.7178,-0.4478 -0.2776,-0.0883 -0.6039,-0.1305 -0.9749,-0.1305 l -0.6538,0 -1.2794,6.4201 c -0.0166,0.0883 -0.055,0.1638 -0.1177,0.2277 -0.064,0.0627 -0.1599,0.1139 -0.2956,0.16 -0.1305,0.046 -0.3032,0.0806 -0.5143,0.101 -0.2111,0.0218 -0.481,0.0295 -0.8022,0.0295 -0.3122,0 -0.5655,-0.008 -0.76,-0.0295 -0.1983,-0.0204 -0.3505,-0.055 -0.4606,-0.101 -0.1087,-0.0461 -0.1803,-0.0973 -0.2149,-0.16 -0.0333,-0.0639 -0.0422,-0.1394 -0.0256,-0.2277 l 1.2794,-6.4201 -0.6333,0 c -0.4056,0 -0.7638,0.0511 -1.0849,0.156 -0.316,0.1011 -0.6116,0.2623 -0.8854,0.4773 -0.2712,0.2149 -0.5284,0.49 -0.7689,0.8265 -0.2405,0.3429 -0.4772,0.7472 -0.7178,1.2167 l -1.8602,3.654 c -0.0551,0.1267 -0.1267,0.2239 -0.2112,0.3007 -0.0806,0.0716 -0.1944,0.1305 -0.3377,0.1766 -0.1484,0.046 -0.3378,0.0806 -0.5706,0.101 -0.2355,0.0218 -0.5272,0.0295 -0.8726,0.0295 -0.3211,0 -0.5834,-0.008 -0.7856,-0.0295 -0.1983,-0.0204 -0.3582,-0.0499 -0.481,-0.0882 -0.1177,-0.0384 -0.2022,-0.0807 -0.2444,-0.1357 -0.0473,-0.0537 -0.0678,-0.1177 -0.0678,-0.1932 0,-0.055 0.004,-0.1189 0.0205,-0.1778 0.0166,-0.0627 0.0422,-0.1343 0.0767,-0.2188 0.0333,-0.0806 0.0793,-0.1778 0.1344,-0.2917 0.0588,-0.11 0.1305,-0.2405 0.2111,-0.3877 l 1.7477,-3.2087 c 0.3288,-0.595 0.6409,-1.1016 0.9327,-1.5187 0.2955,-0.4184 0.5859,-0.7689 0.8738,-1.0517 0.2866,-0.2866 0.5911,-0.5233 0.9033,-0.7088 0.3121,-0.1855 0.6499,-0.3416 1.012,-0.4721 l 0.0128,-0.0256 c -0.27,-0.0934 -0.5143,-0.2111 -0.7254,-0.3582 -0.215,-0.1484 -0.4005,-0.3506 -0.5566,-0.6039 -0.1574,-0.2572 -0.2917,-0.5745 -0.4056,-0.9545 -0.1138,-0.3748 -0.2111,-0.8393 -0.2827,-1.3843 l -0.3838,-2.8019 c -0.0256,-0.1395 -0.0423,-0.2956 -0.0551,-0.4645 -0.0128,-0.1688 -0.0217,-0.2993 -0.0217,-0.3889 0,-0.1139 0.0217,-0.2188 0.055,-0.3071 0.0384,-0.0934 0.1228,-0.165 0.2495,-0.2239 0.1267,-0.0588 0.3032,-0.0972 0.5309,-0.1228 0.2291,-0.0256 0.5285,-0.0384 0.8995,-0.0384 0.3467,0 0.6205,0.009 0.8278,0.0307 0.206,0.0205 0.362,0.0538 0.4682,0.1011 0.1101,0.0422 0.1817,0.1049 0.2188,0.1855 0.0346,0.0755 0.0601,0.1727 0.0678,0.2866 l 0.3467,3.3636 c 0.0499,0.4696 0.1267,0.8662 0.2278,1.186 0.1011,0.3212 0.2405,0.5783 0.4132,0.7818 0.1728,0.2021 0.3928,0.3454 0.6538,0.4388 0.2661,0.0883 0.5873,0.1343 0.9673,0.1343 l 0.641,0 1.1949,-6.0017 c 0.0167,-0.0883 0.055,-0.1638 0.1177,-0.2278 0.0589,-0.0626 0.1561,-0.1138 0.2828,-0.156 0.1267,-0.0423 0.2955,-0.0717 0.5105,-0.0922 0.2111,-0.0217 0.4772,-0.0307 0.7894,-0.0307 0.3122,0 0.5744,0.009 0.7766,0.0307 0.2034,0.0205 0.3595,0.0499 0.4734,0.0922 0.1087,0.0422 0.1817,0.0934 0.2149,0.156 0.0333,0.064 0.0422,0.1395 0.0256,0.2278 l -1.195,6.0017 0.6295,0 c 0.3582,0 0.6871,-0.0499 0.9826,-0.1471 0.2955,-0.0972 0.5745,-0.2495 0.8278,-0.4555 0.2533,-0.2072 0.4938,-0.4695 0.7216,-0.7894 0.2239,-0.3211 0.4516,-0.71 0.6755,-1.1617 l 1.7004,-3.3508 c 0.0588,-0.1139 0.1266,-0.2111 0.1983,-0.2866 0.0767,-0.0806 0.1778,-0.1433 0.3122,-0.1855 0.1356,-0.0473 0.3121,-0.0806 0.5284,-0.1011 0.2187,-0.0217 0.5015,-0.0307 0.8559,-0.0307 0.3339,0 0.6,0.009 0.7983,0.0307 0.1984,0.0205 0.3544,0.0499 0.4683,0.0883 0.1139,0.0384 0.1855,0.0793 0.2201,0.1305 0.0294,0.0461 0.046,0.1062 0.046,0.1727 0,0.0973 -0.0345,0.2367 -0.1062,0.4146 -0.0665,0.1765 -0.1765,0.4004 -0.3288,0.6704 l -1.502,2.7942 c -0.2917,0.5361 -0.5655,0.9916 -0.8316,1.3754 -0.2623,0.3851 -0.5284,0.7139 -0.7984,0.9877 -0.2648,0.2789 -0.5437,0.5028 -0.8265,0.6756 -0.2879,0.1727 -0.5949,0.3173 -0.925,0.4311 l -0.0128,0.0243 c 0.325,0.1395 0.6039,0.3007 0.8367,0.4773 0.2354,0.1778 0.4427,0.4017 0.6154,0.6755 0.1727,0.27 0.3173,0.6039 0.4389,1.0005 0.119,0.3966 0.22,0.8905 0.3045,1.4765 l 0.4516,3.1192 c 0.0333,0.1612 0.0589,0.3211 0.0755,0.49 0.0166,0.1689 0.0256,0.3032 0.0256,0.4056 z m 15.4733,0.2226 c -0.0166,0.0806 -0.055,0.1523 -0.1228,0.2162 -0.0627,0.0627 -0.1651,0.1139 -0.2994,0.1561 -0.1356,0.0371 -0.3084,0.0717 -0.5195,0.0921 -0.2149,0.0218 -0.4721,0.0295 -0.7842,0.0295 -0.325,0 -0.5911,-0.008 -0.7946,-0.0295 -0.2021,-0.0204 -0.362,-0.055 -0.4721,-0.0921 -0.1138,-0.0422 -0.1906,-0.0934 -0.2277,-0.1561 -0.0384,-0.0639 -0.0461,-0.1356 -0.0294,-0.2162 l 1.3843,-6.8794 c 0.0499,-0.2483 0.1011,-0.5067 0.1561,-0.7805 0.055,-0.2699 0.11,-0.5489 0.1689,-0.8316 0.055,-0.2866 0.1215,-0.5694 0.1983,-0.8572 0.0716,-0.2828 0.1433,-0.5476 0.2111,-0.7971 l 0,0 c -0.3723,0.4939 -0.76,0.9967 -1.1604,1.4982 -0.4056,0.5028 -0.8022,0.9788 -1.1912,1.4355 l -6.351,7.2249 c -0.0845,0.0972 -0.1689,0.1778 -0.2623,0.2405 -0.0883,0.064 -0.1983,0.1101 -0.325,0.1484 -0.1266,0.0371 -0.2789,0.0627 -0.4516,0.0755 -0.1779,0.0128 -0.3966,0.0167 -0.6589,0.0167 -0.325,0 -0.586,-0.008 -0.7843,-0.0244 -0.1983,-0.0179 -0.3544,-0.0473 -0.4683,-0.0844 -0.11,-0.0422 -0.1817,-0.0972 -0.2162,-0.1689 -0.0333,-0.0716 -0.0371,-0.1612 -0.0115,-0.2661 l 3.0386,-15.1189 c 0.008,-0.0793 0.0461,-0.151 0.1177,-0.215 0.0678,-0.0626 0.1727,-0.1138 0.3084,-0.156 0.1343,-0.0384 0.3083,-0.0717 0.5194,-0.0922 0.2111,-0.0217 0.4721,-0.0307 0.7843,-0.0307 0.3173,0 0.5744,0.009 0.7766,0.0307 0.1983,0.0205 0.3595,0.0538 0.4734,0.0922 0.1177,0.0422 0.1932,0.0934 0.2354,0.156 0.0422,0.064 0.055,0.1357 0.0384,0.215 l -1.511,7.4756 c -0.0384,0.1984 -0.0883,0.4133 -0.1433,0.6538 -0.0589,0.2406 -0.1139,0.4811 -0.1651,0.7216 -0.0499,0.2444 -0.101,0.49 -0.1599,0.7306 -0.0588,0.2443 -0.1177,0.4682 -0.1778,0.6755 l 0.0256,0 c 0.1484,-0.2162 0.3083,-0.4401 0.4861,-0.6755 0.1766,-0.2329 0.3621,-0.4734 0.5476,-0.7088 0.1907,-0.2406 0.38,-0.4734 0.5707,-0.6922 0.1893,-0.2239 0.3671,-0.435 0.5309,-0.6333 l 6.5046,-7.4833 c 0.1011,-0.1062 0.1983,-0.1984 0.2904,-0.2751 0.0973,-0.0717 0.2111,-0.1305 0.3429,-0.1727 0.1305,-0.0371 0.2866,-0.0678 0.4644,-0.0845 0.1766,-0.0166 0.3967,-0.0256 0.6538,-0.0256 0.3212,0 0.5783,0.009 0.7805,0.0307 0.2034,0.0205 0.3595,0.0538 0.4682,0.0922 0.1101,0.0422 0.1855,0.0934 0.2201,0.156 0.0384,0.064 0.0499,0.1357 0.0333,0.215 l -3.0425,15.1688 z m 16.676,-11.6606 c 0,0.4593 -0.0512,0.9403 -0.1561,1.447 -0.1011,0.5028 -0.27,0.9967 -0.499,1.4777 -0.2316,0.4849 -0.531,0.9404 -0.8982,1.3754 -0.3671,0.4312 -0.8149,0.815 -1.351,1.1489 -0.531,0.3365 -1.1477,0.5988 -1.8488,0.7933 -0.6998,0.1931 -1.5238,0.2904 -2.4731,0.2904 l -1.6709,0 -1.021,5.1164 c -0.0128,0.0793 -0.055,0.1561 -0.1228,0.2226 -0.0678,0.064 -0.1689,0.119 -0.3084,0.1612 -0.1433,0.0371 -0.3211,0.0717 -0.536,0.0921 -0.2112,0.0218 -0.4773,0.0295 -0.7894,0.0295 -0.3084,0 -0.5566,-0.008 -0.76,-0.0295 -0.2022,-0.0204 -0.3583,-0.055 -0.476,-0.0921 -0.1138,-0.0422 -0.1906,-0.0934 -0.2328,-0.1561 -0.0422,-0.0639 -0.0499,-0.1394 -0.0256,-0.2277 l 2.8876,-14.4101 c 0.0717,-0.3877 0.2316,-0.6794 0.4811,-0.8739 0.2444,-0.1932 0.5489,-0.2904 0.9071,-0.2904 l 3.4992,0 c 0.4299,0 0.815,0.0128 1.1515,0.0422 0.3378,0.0294 0.6717,0.0755 1.0005,0.1433 0.5028,0.0972 0.9545,0.2533 1.3549,0.4606 0.4018,0.2022 0.7382,0.4593 1.0223,0.7715 0.2776,0.3083 0.4926,0.6717 0.641,1.0888 0.1471,0.4184 0.2239,0.8866 0.2239,1.4189 z m -3.4186,0.3672 c 0,-0.3967 -0.0934,-0.7396 -0.2828,-1.03 -0.1906,-0.2866 -0.4862,-0.49 -0.8777,-0.6077 -0.174,-0.055 -0.3672,-0.0972 -0.5834,-0.119 -0.2149,-0.0205 -0.4516,-0.0294 -0.7178,-0.0294 l -1.4303,0 -1.0888,5.4452 1.4905,0 c 0.4721,0 0.8777,-0.055 1.2103,-0.1689 0.3378,-0.11 0.6295,-0.2572 0.8828,-0.4388 0.2534,-0.1817 0.4683,-0.3966 0.6461,-0.6461 0.1766,-0.2495 0.3199,-0.5067 0.4338,-0.7805 0.11,-0.2751 0.1944,-0.5489 0.2405,-0.8226 0.0512,-0.279 0.0768,-0.5451 0.0768,-0.8022 z m 17.1979,-2.7354 c 0,0.2277 -0.0371,0.5399 -0.1177,0.9288 -0.0755,0.3877 -0.1778,0.6999 -0.2955,0.9327 -0.1177,0.2367 -0.2534,0.3544 -0.4005,0.3544 -0.11,0 -0.2367,-0.0678 -0.3851,-0.2073 -0.1471,-0.1343 -0.3416,-0.2827 -0.5821,-0.4388 -0.2367,-0.1561 -0.5438,-0.3032 -0.911,-0.4388 -0.3723,-0.1395 -0.8367,-0.206 -1.3843,-0.206 -0.6128,0 -1.1694,0.1215 -1.6722,0.362 -0.5015,0.2457 -0.9532,0.5656 -1.346,0.9673 -0.3966,0.3966 -0.7433,0.8559 -1.0389,1.3754 -0.2993,0.5194 -0.5437,1.0555 -0.7382,1.6172 -0.1944,0.5603 -0.3377,1.1182 -0.4299,1.6747 -0.0972,0.5527 -0.1445,1.0722 -0.1445,1.5494 0,0.5732 0.0729,1.0798 0.2162,1.5187 0.1471,0.435 0.3544,0.7983 0.6243,1.0849 0.2738,0.2879 0.6078,0.5067 1.0044,0.65 0.3966,0.1433 0.8406,0.2149 1.3383,0.2149 0.5821,0 1.0849,-0.0627 1.502,-0.1855 0.4133,-0.1216 0.7689,-0.261 1.0645,-0.4094 0.2904,-0.1472 0.5348,-0.2866 0.7254,-0.4094 0.1945,-0.1216 0.371,-0.1856 0.5271,-0.1856 0.1062,0 0.1779,0.0384 0.2111,0.119 0.0384,0.0755 0.0551,0.1855 0.0551,0.3288 0,0.0551 -0.009,0.1433 -0.0256,0.2572 -0.0167,0.1177 -0.0371,0.2444 -0.0589,0.3928 -0.0256,0.1433 -0.055,0.2994 -0.0883,0.4683 -0.0345,0.1688 -0.0716,0.3249 -0.11,0.4733 -0.0422,0.1433 -0.0883,0.2738 -0.1433,0.3967 -0.055,0.1177 -0.1267,0.2226 -0.2149,0.3121 -0.0934,0.0922 -0.27,0.2111 -0.5323,0.3544 -0.2623,0.1433 -0.5872,0.279 -0.9621,0.4005 -0.38,0.1267 -0.8099,0.2329 -1.2871,0.3173 -0.4772,0.0883 -0.9877,0.1305 -1.5327,0.1305 -0.8944,0 -1.7042,-0.1177 -2.4271,-0.3582 -0.7216,-0.2419 -1.3332,-0.6001 -1.836,-1.0901 -0.5015,-0.4849 -0.8905,-1.0926 -1.1604,-1.827 -0.2738,-0.7344 -0.4094,-1.5916 -0.4094,-2.5704 0,-0.7676 0.0806,-1.5621 0.2367,-2.3925 0.1561,-0.8278 0.3928,-1.6377 0.7088,-2.4271 0.3173,-0.7894 0.7177,-1.5404 1.2077,-2.2492 0.4849,-0.7101 1.0594,-1.3306 1.7221,-1.8615 0.6628,-0.5284 1.4176,-0.9545 2.2621,-1.2667 0.8444,-0.3121 1.7809,-0.4682 2.8108,-0.4682 0.5783,0 1.1221,0.0588 1.6377,0.1816 0.5143,0.1178 0.966,0.2777 1.346,0.4773 0.3838,0.1983 0.6537,0.3748 0.806,0.5348 0.1522,0.1612 0.2277,0.3672 0.2277,0.6167 z m 12.4475,8.306 c 0,0.3211 -0.0294,0.6665 -0.0934,1.0388 -0.0627,0.3711 -0.1638,0.7511 -0.3083,1.1349 -0.1433,0.3889 -0.3327,0.7728 -0.5694,1.1527 -0.2315,0.3749 -0.5233,0.7293 -0.8687,1.0594 -0.3467,0.3288 -0.7561,0.6205 -1.2334,0.8739 -0.4721,0.2482 -1.0081,0.4426 -1.612,0.5731 -0.4261,0.1062 -0.8943,0.1855 -1.3972,0.2329 -0.5015,0.0499 -1.0632,0.0755 -1.6798,0.0755 l -4.1147,0 c -0.1356,0 -0.2571,-0.0167 -0.3761,-0.055 -0.1139,-0.0384 -0.2111,-0.1011 -0.2866,-0.1856 -0.0716,-0.0882 -0.1267,-0.1944 -0.1522,-0.3211 -0.0295,-0.1267 -0.0295,-0.2827 0.005,-0.4644 l 2.9119,-14.5611 c 0.008,-0.0793 0.0461,-0.151 0.1177,-0.215 0.0717,-0.0626 0.1728,-0.1138 0.3122,-0.156 0.1356,-0.0384 0.3122,-0.0717 0.5233,-0.0922 0.2111,-0.0217 0.4772,-0.0307 0.7894,-0.0307 0.3122,0 0.5706,0.009 0.7689,0.0307 0.1984,0.0205 0.3583,0.0538 0.4721,0.0922 0.1139,0.0422 0.1907,0.0934 0.2316,0.156 0.0422,0.064 0.055,0.1357 0.0384,0.215 l -1.0926,5.458 1.9537,0 c 0.3211,0 0.6077,0.004 0.8648,0.0128 0.2534,0.008 0.4901,0.0205 0.705,0.0422 0.2111,0.0205 0.4094,0.0461 0.5873,0.0755 0.1765,0.0294 0.3454,0.0678 0.5104,0.1139 0.5272,0.1433 0.9839,0.3416 1.3588,0.6 0.38,0.261 0.6922,0.5566 0.9378,0.8854 0.2405,0.3301 0.4171,0.6883 0.5271,1.0811 0.1139,0.3928 0.1689,0.7843 0.1689,1.1771 z m -3.393,0.4183 c 0,-0.3301 -0.0806,-0.6461 -0.2367,-0.9455 -0.1561,-0.2994 -0.4184,-0.5322 -0.7894,-0.696 -0.0934,-0.0384 -0.1945,-0.0767 -0.3045,-0.1023 -0.1139,-0.0295 -0.2405,-0.055 -0.3838,-0.0755 -0.1433,-0.0218 -0.3122,-0.0333 -0.5016,-0.0422 -0.1906,-0.009 -0.4094,-0.0128 -0.655,-0.0128 l -1.8565,0 -1.0171,5.0652 1.9281,0 c 0.2533,0 0.4772,-0.005 0.6717,-0.0166 0.1944,-0.0128 0.371,-0.0346 0.5271,-0.0551 0.1561,-0.0255 0.2955,-0.0601 0.4273,-0.0933 0.1254,-0.0384 0.2572,-0.0807 0.3877,-0.1305 0.2623,-0.1062 0.5066,-0.2534 0.7254,-0.444 0.2239,-0.1894 0.4145,-0.4094 0.5783,-0.6576 0.1612,-0.2534 0.2828,-0.5323 0.3672,-0.8406 0.0896,-0.3071 0.1318,-0.6244 0.1318,-0.9532 z m 16.4098,5.1062 c 0,0.1394 -0.0255,0.2533 -0.0806,0.3378 -0.055,0.0895 -0.1471,0.156 -0.2789,0.2111 -0.1305,0.055 -0.3122,0.0934 -0.5309,0.1138 -0.2239,0.0218 -0.5067,0.0295 -0.8445,0.0295 -0.3544,0 -0.6333,-0.008 -0.8316,-0.0295 -0.2021,-0.0204 -0.3582,-0.0588 -0.4682,-0.1049 -0.1139,-0.0512 -0.1856,-0.1139 -0.2239,-0.1855 -0.0384,-0.0768 -0.064,-0.1689 -0.0806,-0.2879 l -0.6078,-3.5657 c -0.0883,-0.5233 -0.2021,-0.9583 -0.3326,-1.3089 -0.1318,-0.3505 -0.3045,-0.6371 -0.5118,-0.8559 -0.2098,-0.2162 -0.4593,-0.3723 -0.7421,-0.4644 -0.2827,-0.0896 -0.6205,-0.1356 -1.0043,-0.1356 l -0.7178,0 -1.2871,6.4201 c -0.0166,0.0883 -0.0588,0.1638 -0.1266,0.2277 -0.0678,0.0627 -0.1651,0.1139 -0.3045,0.16 -0.1344,0.046 -0.3071,0.0806 -0.5182,0.101 -0.2111,0.0218 -0.4734,0.0295 -0.7894,0.0295 -0.3211,0 -0.5783,-0.008 -0.7817,-0.0295 -0.2022,-0.0204 -0.3583,-0.055 -0.476,-0.101 -0.1138,-0.0461 -0.1906,-0.0973 -0.2328,-0.16 -0.0422,-0.0639 -0.0499,-0.1394 -0.0256,-0.2277 l 3.0399,-15.1317 c 0.008,-0.0883 0.0461,-0.1638 0.1177,-0.2278 0.0678,-0.0626 0.1689,-0.1138 0.3032,-0.156 0.1357,-0.0423 0.3084,-0.0717 0.5195,-0.0922 0.2072,-0.0217 0.4734,-0.0307 0.7894,-0.0307 0.3173,0 0.5783,0.009 0.7804,0.0307 0.2035,0.0205 0.3634,0.0499 0.4811,0.0922 0.1151,0.0422 0.1945,0.0934 0.229,0.156 0.0371,0.064 0.0499,0.1395 0.0333,0.2278 l -1.2065,6.0017 0.7165,0 c 0.3595,0 0.6883,-0.0499 0.98,-0.1471 0.2904,-0.0972 0.5693,-0.2533 0.8316,-0.4683 0.261,-0.2162 0.5182,-0.4938 0.7715,-0.8367 0.2495,-0.3365 0.5105,-0.7587 0.7804,-1.2615 l 1.7221,-3.1909 c 0.0679,-0.1139 0.1395,-0.2111 0.2201,-0.2866 0.0845,-0.0806 0.1983,-0.1433 0.3416,-0.1855 0.1433,-0.0473 0.325,-0.0806 0.545,-0.1011 0.2239,-0.0217 0.5105,-0.0307 0.8611,-0.0307 0.325,0 0.5898,0.009 0.7932,0.0307 0.206,0.0205 0.3634,0.0499 0.4683,0.0922 0.1049,0.0422 0.1778,0.0882 0.2111,0.1433 0.0333,0.055 0.0461,0.11 0.0461,0.165 0,0.1267 -0.0333,0.2661 -0.1011,0.426 -0.0717,0.16 -0.1894,0.38 -0.3544,0.65 l -1.6338,2.8403 c -0.3032,0.5361 -0.595,0.9916 -0.8649,1.3677 -0.2738,0.3762 -0.5438,0.6922 -0.8099,0.9493 -0.2699,0.2623 -0.5412,0.4734 -0.8188,0.6423 -0.2751,0.1689 -0.5706,0.3083 -0.8828,0.4133 l 0,0.0128 c 0.2955,0.1394 0.5527,0.2993 0.7766,0.4721 0.2201,0.174 0.4184,0.3927 0.5872,0.6627 0.1689,0.2661 0.3122,0.5949 0.4351,0.9877 0.1266,0.3928 0.2443,0.8777 0.3582,1.456 l 0.6333,3.3226 c 0.0371,0.1638 0.0678,0.3161 0.0793,0.4504 0.0128,0.1356 0.0179,0.2623 0.0179,0.38 z m 27.395,0.1983 c -0.0179,0.0806 -0.0601,0.1523 -0.119,0.2162 -0.0627,0.0627 -0.1599,0.1139 -0.2955,0.1561 -0.1305,0.0371 -0.2994,0.0717 -0.5067,0.0921 -0.2111,0.0218 -0.4721,0.0295 -0.7971,0.0295 -0.3121,0 -0.5693,-0.008 -0.7727,-0.0295 -0.206,-0.0204 -0.3672,-0.055 -0.4811,-0.0921 -0.1139,-0.0422 -0.1945,-0.0934 -0.2405,-0.1561 -0.0423,-0.0639 -0.055,-0.1356 -0.0295,-0.2162 l 2.5832,-12.8761 -5.9685,0 -2.5819,12.8761 c -0.0128,0.0806 -0.055,0.1523 -0.1228,0.2162 -0.0678,0.0627 -0.1689,0.1139 -0.3045,0.1561 -0.1343,0.0371 -0.3122,0.0717 -0.5271,0.0921 -0.215,0.0218 -0.4772,0.0295 -0.7933,0.0295 -0.3173,0 -0.5783,-0.008 -0.7804,-0.0295 -0.2034,-0.0204 -0.3595,-0.055 -0.4772,-0.0921 -0.1139,-0.0422 -0.1907,-0.0934 -0.2278,-0.1561 -0.0345,-0.0639 -0.0422,-0.1356 -0.0179,-0.2162 l 2.9133,-14.5611 c 0.0665,-0.3454 0.2021,-0.6026 0.4094,-0.7715 0.2111,-0.1689 0.4554,-0.2533 0.742,-0.2533 l 10.5808,0 c 0.2956,0 0.5118,0.0844 0.6423,0.2533 0.1344,0.1689 0.1599,0.4261 0.0883,0.7715 l -2.9158,14.5611 z m 15.8469,-15.1138 c 0,0.0512 -0.004,0.1356 -0.0166,0.2623 -0.0128,0.1215 -0.0333,0.261 -0.0589,0.4132 -0.0205,0.1523 -0.055,0.3122 -0.0972,0.4773 -0.0422,0.1688 -0.0921,0.316 -0.1561,0.4554 -0.0589,0.1357 -0.1343,0.2495 -0.2188,0.3416 -0.0895,0.0896 -0.1817,0.1357 -0.2789,0.1357 l -5.7152,0 -0.7804,3.8996 4.849,0 c 0.1138,0 0.1983,0.0423 0.2456,0.1229 0.0499,0.0844 0.0755,0.1983 0.0755,0.3454 0,0.0589 -0.004,0.1484 -0.0166,0.2661 -0.0128,0.1177 -0.0346,0.2572 -0.0589,0.4094 -0.0217,0.1523 -0.055,0.3045 -0.0972,0.4606 -0.0422,0.1561 -0.0934,0.2994 -0.1561,0.4338 -0.0601,0.1317 -0.1356,0.2366 -0.2162,0.3211 -0.0845,0.0806 -0.1727,0.1228 -0.2738,0.1228 l -4.8452,0 -0.9033,4.5074 5.7907,0 c 0.0972,0 0.1727,0.0422 0.2201,0.1305 0.0499,0.0845 0.0755,0.2111 0.0755,0.38 0,0.055 -0.004,0.1484 -0.0128,0.27 -0.009,0.1266 -0.0256,0.2661 -0.0551,0.4183 -0.0294,0.1523 -0.0626,0.3084 -0.1049,0.4645 -0.0422,0.156 -0.0934,0.3032 -0.1522,0.4426 -0.064,0.1357 -0.1356,0.2444 -0.215,0.3288 -0.0844,0.0807 -0.1778,0.1229 -0.2827,0.1229 l -8.045,0 c -0.1305,0 -0.2533,-0.0167 -0.3582,-0.055 -0.1101,-0.0384 -0.1984,-0.1011 -0.2662,-0.1856 -0.0716,-0.0882 -0.119,-0.1944 -0.1433,-0.3211 -0.0256,-0.1305 -0.0217,-0.2827 0.0128,-0.4644 l 2.7853,-13.9534 c 0.0755,-0.3621 0.2239,-0.6243 0.4517,-0.7843 0.2239,-0.1599 0.4772,-0.2405 0.751,-0.2405 l 7.9477,0 c 0.215,0 0.3199,0.1561 0.3199,0.4721 z m 13.1652,3.4532 c 0,0.4593 -0.0511,0.9403 -0.156,1.447 -0.1011,0.5028 -0.27,0.9967 -0.499,1.4777 -0.2316,0.4849 -0.531,0.9404 -0.8982,1.3754 -0.3672,0.4312 -0.815,0.815 -1.351,1.1489 -0.531,0.3365 -1.1477,0.5988 -1.8488,0.7933 -0.6999,0.1931 -1.5238,0.2904 -2.4731,0.2904 l -1.671,0 -1.0209,5.1164 c -0.0128,0.0793 -0.055,0.1561 -0.1229,0.2226 -0.0678,0.064 -0.1688,0.119 -0.3083,0.1612 -0.1433,0.0371 -0.3211,0.0717 -0.5361,0.0921 -0.2111,0.0218 -0.4772,0.0295 -0.7894,0.0295 -0.3083,0 -0.5565,-0.008 -0.7599,-0.0295 -0.2022,-0.0204 -0.3583,-0.055 -0.476,-0.0921 -0.1139,-0.0422 -0.1906,-0.0934 -0.2328,-0.1561 -0.0423,-0.0639 -0.0499,-0.1394 -0.0256,-0.2277 l 2.8876,-14.4101 c 0.0717,-0.3877 0.2316,-0.6794 0.4811,-0.8739 0.2443,-0.1932 0.5488,-0.2904 0.9071,-0.2904 l 3.4992,0 c 0.4299,0 0.815,0.0128 1.1515,0.0422 0.3377,0.0294 0.6717,0.0755 1.0005,0.1433 0.5028,0.0972 0.9544,0.2533 1.3549,0.4606 0.4017,0.2022 0.7382,0.4593 1.0223,0.7715 0.2776,0.3083 0.4925,0.6717 0.6409,1.0888 0.1472,0.4184 0.2239,0.8866 0.2239,1.4189 z m -3.4186,0.3672 c 0,-0.3967 -0.0934,-0.7396 -0.2827,-1.03 -0.1907,-0.2866 -0.4862,-0.49 -0.8777,-0.6077 -0.174,-0.055 -0.3672,-0.0972 -0.5834,-0.119 -0.215,-0.0205 -0.4517,-0.0294 -0.7178,-0.0294 l -1.4304,0 -1.0888,5.4452 1.4906,0 c 0.4721,0 0.8777,-0.055 1.2103,-0.1689 0.3378,-0.11 0.6295,-0.2572 0.8828,-0.4388 0.2533,-0.1817 0.4683,-0.3966 0.6461,-0.6461 0.1766,-0.2495 0.3199,-0.5067 0.4337,-0.7805 0.1101,-0.2751 0.1945,-0.5489 0.2406,-0.8226 0.0511,-0.279 0.0767,-0.5451 0.0767,-0.8022 z m 16.0836,-3.8204 c 0,0.0512 -0.004,0.1356 -0.0166,0.2623 -0.0128,0.1215 -0.0333,0.261 -0.0589,0.4132 -0.0204,0.1523 -0.055,0.3122 -0.0972,0.4773 -0.0422,0.1688 -0.0921,0.316 -0.1561,0.4554 -0.0588,0.1357 -0.1343,0.2495 -0.2188,0.3416 -0.0895,0.0896 -0.1816,0.1357 -0.2789,0.1357 l -5.7152,0 -0.7804,3.8996 4.849,0 c 0.1139,0 0.1983,0.0423 0.2457,0.1229 0.0499,0.0844 0.0754,0.1983 0.0754,0.3454 0,0.0589 -0.004,0.1484 -0.0166,0.2661 -0.0128,0.1177 -0.0345,0.2572 -0.0588,0.4094 -0.0218,0.1523 -0.0551,0.3045 -0.0973,0.4606 -0.0422,0.1561 -0.0934,0.2994 -0.1561,0.4338 -0.0601,0.1317 -0.1356,0.2366 -0.2162,0.3211 -0.0844,0.0806 -0.1727,0.1228 -0.2738,0.1228 l -4.8452,0 -0.9032,4.5074 5.7906,0 c 0.0973,0 0.1728,0.0422 0.2201,0.1305 0.0499,0.0845 0.0755,0.2111 0.0755,0.38 0,0.055 -0.004,0.1484 -0.0128,0.27 -0.009,0.1266 -0.0256,0.2661 -0.055,0.4183 -0.0295,0.1523 -0.0627,0.3084 -0.1049,0.4645 -0.0423,0.156 -0.0934,0.3032 -0.1523,0.4426 -0.064,0.1357 -0.1356,0.2444 -0.2149,0.3288 -0.0845,0.0807 -0.1779,0.1229 -0.2828,0.1229 l -8.045,0 c -0.1305,0 -0.2533,-0.0167 -0.3582,-0.055 -0.1101,-0.0384 -0.1983,-0.1011 -0.2661,-0.1856 -0.0717,-0.0882 -0.119,-0.1944 -0.1433,-0.3211 -0.0256,-0.1305 -0.0218,-0.2827 0.0128,-0.4644 l 2.7853,-13.9534 c 0.0754,-0.3621 0.2239,-0.6243 0.4516,-0.7843 0.2239,-0.1599 0.4772,-0.2405 0.751,-0.2405 l 7.9478,0 c 0.2149,0 0.3198,0.1561 0.3198,0.4721 z m 12.9874,2.7904 c 0,0.4849 -0.0678,0.9455 -0.2021,1.3754 -0.1356,0.435 -0.3339,0.8316 -0.5911,1.1911 -0.2572,0.3583 -0.5694,0.6743 -0.9365,0.9494 -0.3634,0.2738 -0.7728,0.4977 -1.2245,0.6627 0.3583,0.0627 0.6922,0.1817 0.9916,0.3455 0.3045,0.165 0.5617,0.3761 0.7766,0.6294 0.2149,0.2572 0.3838,0.5604 0.5028,0.911 0.1177,0.3505 0.1766,0.7433 0.1766,1.1822 0,0.3966 -0.055,0.806 -0.16,1.232 -0.1049,0.4223 -0.2737,0.8406 -0.5066,1.2411 -0.2277,0.4056 -0.5271,0.7932 -0.8994,1.1604 -0.3672,0.3672 -0.8137,0.6883 -1.337,0.9621 -0.5195,0.279 -1.1234,0.499 -1.8027,0.6589 -0.6832,0.16 -1.4765,0.2406 -2.3798,0.2406 l -4.4447,0 c -0.3377,0 -0.5821,-0.0845 -0.7344,-0.2495 -0.1522,-0.1638 -0.1944,-0.4222 -0.1177,-0.7766 l 2.7853,-13.9534 c 0.0679,-0.3621 0.2111,-0.6243 0.4389,-0.7843 0.2277,-0.1599 0.49,-0.2405 0.7894,-0.2405 l 3.8574,0 c 0.8483,0 1.5788,0.0678 2.1942,0.1983 0.6167,0.1305 1.1362,0.3288 1.5533,0.5988 0.4183,0.2661 0.7344,0.6039 0.9506,1.0133 0.2149,0.4094 0.3198,0.8905 0.3198,1.4521 z m -3.3418,0.6077 c 0,-0.2328 -0.0422,-0.435 -0.1228,-0.6077 -0.0845,-0.1727 -0.2073,-0.325 -0.3711,-0.4478 -0.1689,-0.1228 -0.3761,-0.2188 -0.6295,-0.2827 -0.2494,-0.0678 -0.5693,-0.1011 -0.9582,-0.1011 l -1.772,0 -0.8278,4.153 1.8283,0 c 0.5348,0 0.9787,-0.0844 1.3331,-0.2533 0.3544,-0.1689 0.6461,-0.3839 0.87,-0.6538 0.2278,-0.2661 0.3915,-0.5617 0.4926,-0.8828 0.1062,-0.3199 0.1574,-0.6282 0.1574,-0.9238 z m -0.5578,6.804 c 0,-0.5284 -0.1945,-0.9455 -0.586,-1.25 -0.389,-0.3083 -1.0095,-0.4593 -1.8667,-0.4593 l -2.152,0 -0.9109,4.5573 2.2953,0 c 0.5821,0 1.0759,-0.0844 1.4726,-0.2482 0.4017,-0.1651 0.7305,-0.38 0.9877,-0.6423 0.2623,-0.2661 0.4516,-0.5693 0.5744,-0.9109 0.1229,-0.3429 0.1856,-0.6922 0.1856,-1.0466 z m 17.4602,-10.2021 c 0,0.0512 -0.004,0.1356 -0.0166,0.2623 -0.0128,0.1215 -0.0333,0.261 -0.0589,0.4132 -0.0204,0.1523 -0.055,0.3122 -0.0972,0.4773 -0.0422,0.1688 -0.0921,0.316 -0.1561,0.4554 -0.0589,0.1357 -0.1343,0.2495 -0.2188,0.3416 -0.0895,0.0896 -0.1817,0.1357 -0.2789,0.1357 l -5.7152,0 -0.7804,3.8996 4.849,0 c 0.1139,0 0.1983,0.0423 0.2456,0.1229 0.0499,0.0844 0.0755,0.1983 0.0755,0.3454 0,0.0589 -0.004,0.1484 -0.0166,0.2661 -0.0128,0.1177 -0.0346,0.2572 -0.0589,0.4094 -0.0217,0.1523 -0.055,0.3045 -0.0972,0.4606 -0.0422,0.1561 -0.0934,0.2994 -0.1561,0.4338 -0.0601,0.1317 -0.1356,0.2366 -0.2162,0.3211 -0.0845,0.0806 -0.1727,0.1228 -0.2738,0.1228 l -4.8452,0 -0.9032,4.5074 5.7906,0 c 0.0973,0 0.1727,0.0422 0.2201,0.1305 0.0499,0.0845 0.0755,0.2111 0.0755,0.38 0,0.055 -0.004,0.1484 -0.0128,0.27 -0.009,0.1266 -0.0256,0.2661 -0.055,0.4183 -0.0295,0.1523 -0.0627,0.3084 -0.105,0.4645 -0.0422,0.156 -0.0934,0.3032 -0.1522,0.4426 -0.064,0.1357 -0.1356,0.2444 -0.215,0.3288 -0.0844,0.0807 -0.1778,0.1229 -0.2827,0.1229 l -8.045,0 c -0.1305,0 -0.2533,-0.0167 -0.3582,-0.055 -0.1101,-0.0384 -0.1984,-0.1011 -0.2662,-0.1856 -0.0716,-0.0882 -0.1189,-0.1944 -0.1433,-0.3211 -0.0255,-0.1305 -0.0217,-0.2827 0.0128,-0.4644 l 2.7853,-13.9534 c 0.0755,-0.3621 0.2239,-0.6243 0.4517,-0.7843 0.2239,-0.1599 0.4772,-0.2405 0.751,-0.2405 l 7.9478,0 c 0.2149,0 0.3198,0.1561 0.3198,0.4721 z" />
      <path
         id="path30"
         style="fill:#151616;fill-rule:evenodd"
         d="m 464.0789,461.3157 c 0,0.5016 -0.0844,0.9916 -0.2533,1.4688 -0.1689,0.4759 -0.4133,0.9161 -0.7382,1.3204 -0.325,0.4055 -0.7216,0.751 -1.1899,1.0427 -0.4695,0.2917 -1.0056,0.5105 -1.6044,0.6499 l 0,0.0384 c 0.4644,0.0793 0.8611,0.215 1.1988,0.4043 0.3378,0.1906 0.6206,0.4273 0.8445,0.705 0.2187,0.2827 0.3838,0.5911 0.4938,0.9378 0.1049,0.3416 0.1599,0.696 0.1599,1.067 0,0.7088 -0.1484,1.3933 -0.4388,2.0509 -0.2956,0.6628 -0.7344,1.25 -1.3216,1.7644 -0.586,0.5156 -1.3294,0.9288 -2.2326,1.2461 -0.9071,0.3122 -1.9665,0.4683 -3.1781,0.4683 -0.4389,0 -0.8611,-0.0294 -1.2743,-0.0845 -0.4133,-0.0588 -0.7933,-0.1356 -1.14,-0.2239 -0.3454,-0.0934 -0.6371,-0.1944 -0.8815,-0.3045 -0.2457,-0.1087 -0.4133,-0.2111 -0.5156,-0.2955 -0.0972,-0.0883 -0.1599,-0.1766 -0.1894,-0.2648 -0.0294,-0.0934 -0.046,-0.2111 -0.046,-0.3634 0,-0.0461 0.004,-0.1356 0.0166,-0.2572 0.0128,-0.1266 0.0294,-0.2661 0.0499,-0.4183 0.0218,-0.1523 0.0512,-0.3122 0.0844,-0.4721 0.0384,-0.1612 0.0845,-0.3122 0.1357,-0.4517 0.055,-0.1433 0.1138,-0.2584 0.1855,-0.3505 0.0678,-0.0883 0.1484,-0.1357 0.2367,-0.1357 0.0921,0 0.2239,0.0512 0.3966,0.1561 0.1727,0.1024 0.3928,0.2111 0.6538,0.325 0.2661,0.1139 0.5783,0.2239 0.9416,0.325 0.3634,0.1062 0.7805,0.1561 1.2487,0.1561 0.5323,0 1.0133,-0.0666 1.4483,-0.1983 0.4351,-0.1305 0.8061,-0.3122 1.1093,-0.5476 0.3007,-0.2329 0.5361,-0.5156 0.7101,-0.8496 0.1689,-0.3326 0.2533,-0.7037 0.2533,-1.1131 0,-0.3134 -0.0422,-0.5911 -0.1318,-0.8277 -0.0882,-0.2406 -0.2443,-0.4389 -0.4721,-0.6039 -0.2277,-0.1638 -0.5322,-0.2866 -0.9071,-0.3711 -0.3761,-0.0806 -0.8534,-0.1228 -1.4227,-0.1228 l -1.6044,0 c -0.1638,0 -0.2827,-0.0333 -0.3493,-0.1049 -0.0678,-0.0717 -0.1023,-0.1906 -0.1023,-0.3544 0,-0.064 0.0128,-0.1817 0.0384,-0.3544 0.0217,-0.1689 0.0588,-0.3506 0.101,-0.545 0.0461,-0.1945 0.0973,-0.38 0.1561,-0.5566 0.064,-0.1778 0.1318,-0.3006 0.2034,-0.3672 0.0538,-0.0601 0.1139,-0.1023 0.1766,-0.1318 0.0589,-0.0294 0.1356,-0.0422 0.2239,-0.0422 l 1.6927,0 c 0.5105,0 0.9877,-0.0627 1.4304,-0.1855 0.4388,-0.1215 0.8188,-0.2955 1.1361,-0.5233 0.316,-0.2239 0.5693,-0.5015 0.751,-0.8316 0.1817,-0.3288 0.27,-0.696 0.27,-1.0965 0,-0.2456 -0.0384,-0.4695 -0.119,-0.6589 -0.0755,-0.1944 -0.2022,-0.3582 -0.371,-0.49 -0.1689,-0.1305 -0.38,-0.2316 -0.6372,-0.307 -0.2572,-0.073 -0.5655,-0.1101 -0.9289,-0.1101 -0.4849,0 -0.9365,0.055 -1.3497,0.1599 -0.4095,0.1062 -0.7767,0.2239 -1.0978,0.3468 -0.3211,0.1215 -0.5911,0.2405 -0.806,0.3454 -0.2111,0.1062 -0.3672,0.1612 -0.4555,0.1612 -0.0972,0 -0.1689,-0.0422 -0.2073,-0.1228 -0.0383,-0.0844 -0.055,-0.1983 -0.055,-0.3467 0,-0.0921 0.0128,-0.2316 0.0422,-0.4222 0.0295,-0.1894 0.0679,-0.3877 0.1139,-0.5988 0.0461,-0.2111 0.11,-0.4184 0.1855,-0.6116 0.0768,-0.1983 0.174,-0.3544 0.2828,-0.4644 0.1138,-0.1139 0.325,-0.2328 0.6371,-0.3544 0.3173,-0.1228 0.6807,-0.2367 1.0901,-0.3416 0.4132,-0.11 0.8483,-0.1945 1.3114,-0.2623 0.4606,-0.064 0.9033,-0.0972 1.3216,-0.0972 0.8393,0 1.5622,0.0844 2.161,0.2533 0.5949,0.1689 1.0811,0.4056 1.4521,0.705 0.3711,0.2994 0.641,0.6589 0.8137,1.0798 0.174,0.4184 0.2623,0.8738 0.2623,1.36 z m 13.0156,-2.6471 c 0,0.0512 -0.004,0.1356 -0.0167,0.2623 -0.0128,0.1215 -0.0332,0.261 -0.0588,0.4132 -0.0205,0.1523 -0.055,0.3122 -0.0973,0.4773 -0.0422,0.1688 -0.0921,0.316 -0.156,0.4554 -0.0589,0.1357 -0.1344,0.2495 -0.2188,0.3416 -0.0896,0.0896 -0.1817,0.1357 -0.2789,0.1357 l -5.7152,0 -0.7805,3.8996 4.849,0 c 0.1139,0 0.1984,0.0423 0.2457,0.1229 0.0499,0.0844 0.0755,0.1983 0.0755,0.3454 0,0.0589 -0.004,0.1484 -0.0166,0.2661 -0.0128,0.1177 -0.0346,0.2572 -0.0589,0.4094 -0.0218,0.1523 -0.055,0.3045 -0.0972,0.4606 -0.0423,0.1561 -0.0934,0.2994 -0.1561,0.4338 -0.0602,0.1317 -0.1356,0.2366 -0.2162,0.3211 -0.0845,0.0806 -0.1728,0.1228 -0.2738,0.1228 l -4.8452,0 -0.9033,4.5074 5.7907,0 c 0.0972,0 0.1727,0.0422 0.22,0.1305 0.0499,0.0845 0.0755,0.2111 0.0755,0.38 0,0.055 -0.004,0.1484 -0.0128,0.27 -0.009,0.1266 -0.0256,0.2661 -0.055,0.4183 -0.0294,0.1523 -0.0627,0.3084 -0.1049,0.4645 -0.0422,0.156 -0.0934,0.3032 -0.1523,0.4426 -0.0639,0.1357 -0.1356,0.2444 -0.2149,0.3288 -0.0844,0.0807 -0.1778,0.1229 -0.2827,0.1229 l -8.045,0 c -0.1305,0 -0.2534,-0.0167 -0.3583,-0.055 -0.11,-0.0384 -0.1983,-0.1011 -0.2661,-0.1856 -0.0716,-0.0882 -0.119,-0.1944 -0.1433,-0.3211 -0.0256,-0.1305 -0.0217,-0.2827 0.0128,-0.4644 l 2.7853,-13.9534 c 0.0755,-0.3621 0.2239,-0.6243 0.4516,-0.7843 0.2239,-0.1599 0.4773,-0.2405 0.7511,-0.2405 l 7.9477,0 c 0.215,0 0.3199,0.1561 0.3199,0.4721 z m 12.473,15.1023 c -0.0166,0.0793 -0.0588,0.1561 -0.1228,0.2226 -0.0678,0.064 -0.1689,0.119 -0.2994,0.1612 -0.1305,0.0371 -0.3045,0.0717 -0.5194,0.0921 -0.215,0.0218 -0.4811,0.0295 -0.7933,0.0295 -0.3121,0 -0.5693,-0.008 -0.7766,-0.0295 -0.2072,-0.0204 -0.3633,-0.055 -0.4772,-0.0921 -0.11,-0.0422 -0.1855,-0.0972 -0.2277,-0.1612 -0.0384,-0.0665 -0.0461,-0.1433 -0.0205,-0.2226 l 1.2909,-6.4828 -5.98,0 -1.2999,6.4828 c -0.0128,0.0793 -0.055,0.1561 -0.1228,0.2226 -0.0678,0.064 -0.1689,0.119 -0.3045,0.1612 -0.1343,0.0371 -0.307,0.0717 -0.5182,0.0921 -0.2111,0.0218 -0.4733,0.0295 -0.7894,0.0295 -0.3211,0 -0.5783,-0.008 -0.7817,-0.0295 -0.2021,-0.0204 -0.3582,-0.055 -0.4759,-0.0921 -0.1139,-0.0422 -0.1907,-0.0972 -0.2329,-0.1612 -0.0422,-0.0665 -0.0499,-0.1433 -0.0256,-0.2226 l 3.0399,-15.1445 c 0.008,-0.0793 0.0461,-0.1561 0.1088,-0.2239 0.0678,-0.0627 0.165,-0.1177 0.2955,-0.1599 0.1318,-0.0384 0.3045,-0.0717 0.5156,-0.0922 0.215,-0.0217 0.476,-0.0307 0.7843,-0.0307 0.3173,0 0.5783,0.009 0.7894,0.0307 0.2073,0.0205 0.3672,0.0538 0.4862,0.0922 0.1139,0.0422 0.1932,0.0972 0.2277,0.1599 0.0371,0.0678 0.0499,0.1446 0.0333,0.2239 l -1.1822,5.9007 5.9813,0 1.1732,-5.9007 c 0.0167,-0.0793 0.0589,-0.1561 0.1267,-0.2239 0.0627,-0.0627 0.1651,-0.1177 0.2956,-0.1599 0.1305,-0.0384 0.3032,-0.0717 0.5194,-0.0922 0.2111,-0.0217 0.4759,-0.0307 0.7881,-0.0307 0.3135,0 0.5745,0.009 0.7817,0.0307 0.206,0.0205 0.3672,0.0538 0.4811,0.0922 0.1177,0.0422 0.1945,0.0972 0.2316,0.1599 0.0384,0.0678 0.0473,0.1446 0.0294,0.2239 l -3.0297,15.1445 z m 15.9749,0 c -0.0166,0.0793 -0.0589,0.1561 -0.1228,0.2226 -0.0678,0.064 -0.1689,0.119 -0.2994,0.1612 -0.1305,0.0371 -0.3045,0.0717 -0.5195,0.0921 -0.2149,0.0218 -0.481,0.0295 -0.7932,0.0295 -0.3122,0 -0.5693,-0.008 -0.7766,-0.0295 -0.2073,-0.0204 -0.3634,-0.055 -0.4772,-0.0921 -0.1101,-0.0422 -0.1856,-0.0972 -0.2278,-0.1612 -0.0384,-0.0665 -0.046,-0.1433 -0.0204,-0.2226 l 1.2909,-6.4828 -5.98,0 -1.2999,6.4828 c -0.0128,0.0793 -0.055,0.1561 -0.1228,0.2226 -0.0678,0.064 -0.1689,0.119 -0.3045,0.1612 -0.1344,0.0371 -0.3071,0.0717 -0.5182,0.0921 -0.2111,0.0218 -0.4734,0.0295 -0.7894,0.0295 -0.3211,0 -0.5783,-0.008 -0.7817,-0.0295 -0.2022,-0.0204 -0.3583,-0.055 -0.476,-0.0921 -0.1138,-0.0422 -0.1906,-0.0972 -0.2328,-0.1612 -0.0423,-0.0665 -0.0499,-0.1433 -0.0256,-0.2226 l 3.0399,-15.1445 c 0.008,-0.0793 0.046,-0.1561 0.1087,-0.2239 0.0678,-0.0627 0.1651,-0.1177 0.2956,-0.1599 0.1318,-0.0384 0.3045,-0.0717 0.5156,-0.0922 0.2149,-0.0217 0.4759,-0.0307 0.7843,-0.0307 0.3173,0 0.5783,0.009 0.7894,0.0307 0.2072,0.0205 0.3672,0.0538 0.4862,0.0922 0.1138,0.0422 0.1931,0.0972 0.2277,0.1599 0.0371,0.0678 0.0499,0.1446 0.0333,0.2239 l -1.1822,5.9007 5.9813,0 1.1732,-5.9007 c 0.0166,-0.0793 0.0588,-0.1561 0.1267,-0.2239 0.0626,-0.0627 0.165,-0.1177 0.2955,-0.1599 0.1305,-0.0384 0.3032,-0.0717 0.5194,-0.0922 0.2111,-0.0217 0.476,-0.0307 0.7882,-0.0307 0.3134,0 0.5744,0.009 0.7817,0.0307 0.206,0.0205 0.3672,0.0538 0.4811,0.0922 0.1177,0.0422 0.1944,0.0972 0.2315,0.1599 0.0384,0.0678 0.0474,0.1446 0.0295,0.2239 l -3.0297,15.1445 z m 14.5227,0.0115 c -0.0218,0.0844 -0.0678,0.1561 -0.1267,0.2162 -0.0627,0.0627 -0.1561,0.1139 -0.2827,0.1561 -0.1267,0.0422 -0.2956,0.0717 -0.5105,0.0921 -0.2111,0.0218 -0.4734,0.0295 -0.7856,0.0295 -0.316,0 -0.5783,-0.008 -0.7843,-0.0295 -0.2072,-0.0204 -0.3723,-0.0499 -0.4861,-0.0921 -0.1177,-0.0422 -0.1932,-0.0934 -0.2355,-0.1561 -0.0422,-0.0601 -0.055,-0.1318 -0.0383,-0.2162 l 1.1937,-5.989 -1.2321,0 c -0.3838,0 -0.7306,0.0512 -1.03,0.1561 -0.2993,0.1024 -0.5731,0.2533 -0.8188,0.4517 -0.2443,0.1983 -0.4721,0.4439 -0.6832,0.7395 -0.2111,0.2904 -0.4184,0.6333 -0.6205,1.0209 l -1.8782,3.5492 c -0.0589,0.0972 -0.1305,0.1855 -0.2149,0.2584 -0.0845,0.0755 -0.2035,0.1343 -0.3506,0.1766 -0.1484,0.046 -0.3378,0.0806 -0.5745,0.101 -0.2315,0.0218 -0.5143,0.0295 -0.8521,0.0295 -0.3838,0 -0.6832,-0.008 -0.9122,-0.0244 -0.2226,-0.0179 -0.3966,-0.0383 -0.5181,-0.0601 -0.1267,-0.0243 -0.2073,-0.0627 -0.2406,-0.1049 -0.0384,-0.0461 -0.0601,-0.1011 -0.0601,-0.165 0,-0.0922 0.0294,-0.2022 0.0806,-0.3327 0.055,-0.1318 0.165,-0.3339 0.3288,-0.6039 l 1.9754,-3.4314 c 0.2367,-0.3966 0.4734,-0.7561 0.7011,-1.0811 0.2316,-0.3199 0.4683,-0.5988 0.7088,-0.8265 0.2406,-0.2329 0.4811,-0.426 0.7216,-0.5783 0.2367,-0.1523 0.4811,-0.2661 0.7383,-0.3416 -0.3787,-0.0717 -0.7216,-0.1983 -1.021,-0.3762 -0.3032,-0.1765 -0.5566,-0.3927 -0.7677,-0.6409 -0.2111,-0.2534 -0.3723,-0.5412 -0.481,-0.8611 -0.1139,-0.3211 -0.1689,-0.6627 -0.1689,-1.0261 0,-0.9237 0.1638,-1.7349 0.4938,-2.4347 0.3327,-0.7012 0.7971,-1.2871 1.3972,-1.7643 0.5987,-0.4734 1.3127,-0.8278 2.143,-1.0684 0.8316,-0.2405 1.7439,-0.3582 2.7354,-0.3582 l 4.6264,0 c 0.1305,0 0.2482,0.0166 0.3544,0.055 0.1087,0.0371 0.1932,0.1011 0.261,0.1855 0.064,0.0883 0.11,0.1945 0.1356,0.3212 0.0256,0.1305 0.0205,0.2827 -0.0128,0.4631 l -2.9081,14.5611 z m -2.4987,-13.0795 c -0.5399,0 -1.0172,0.064 -1.4304,0.1906 -0.4184,0.1305 -0.7728,0.316 -1.0555,0.5655 -0.2866,0.2444 -0.5028,0.5489 -0.65,0.9071 -0.1471,0.3583 -0.2239,0.7638 -0.2239,1.2155 0,0.2661 0.0512,0.5028 0.1484,0.7139 0.1011,0.206 0.2444,0.3915 0.4389,0.5476 0.1932,0.1574 0.435,0.2789 0.7254,0.3633 0.2866,0.0883 0.6244,0.1305 1.0133,0.1305 l 1.9665,0 0.925,-4.634 -1.8577,0 z m -318.7242,13.068 c -0.0166,0.0793 -0.0537,0.1561 -0.1215,0.2226 -0.0679,0.064 -0.1689,0.119 -0.3045,0.1612 -0.1344,0.0371 -0.3122,0.0717 -0.5272,0.0921 -0.2149,0.0218 -0.4772,0.0295 -0.7932,0.0295 -0.3211,0 -0.5783,-0.008 -0.7817,-0.0295 -0.2022,-0.0204 -0.3583,-0.055 -0.476,-0.0921 -0.1138,-0.0422 -0.1906,-0.0972 -0.2328,-0.1612 -0.0423,-0.0665 -0.0499,-0.1433 -0.0256,-0.2226 l 3.0399,-15.1445 c 0.008,-0.0793 0.046,-0.1561 0.1177,-0.2239 0.0678,-0.0627 0.1689,-0.1177 0.3032,-0.1599 0.1356,-0.0384 0.3084,-0.0717 0.5195,-0.0922 0.2072,-0.0217 0.4682,-0.0307 0.7766,-0.0307 0.3173,0 0.5783,0.009 0.7804,0.0307 0.2034,0.0205 0.3672,0.0538 0.4862,0.0922 0.1228,0.0422 0.2021,0.0972 0.2367,0.1599 0.0371,0.0678 0.0499,0.1446 0.0333,0.2239 l -3.031,15.1445 z m 163.794,0 c -0.0166,0.0793 -0.0537,0.1561 -0.1215,0.2226 -0.0678,0.064 -0.1689,0.119 -0.3045,0.1612 -0.1344,0.0371 -0.3122,0.0717 -0.5272,0.0921 -0.2149,0.0218 -0.4772,0.0295 -0.7932,0.0295 -0.3211,0 -0.5783,-0.008 -0.7817,-0.0295 -0.2022,-0.0204 -0.3583,-0.055 -0.476,-0.0921 -0.1138,-0.0422 -0.1906,-0.0972 -0.2328,-0.1612 -0.0422,-0.0665 -0.0499,-0.1433 -0.0256,-0.2226 l 3.0399,-15.1445 c 0.008,-0.0793 0.046,-0.1561 0.1177,-0.2239 0.0678,-0.0627 0.1689,-0.1177 0.3032,-0.1599 0.1356,-0.0384 0.3084,-0.0717 0.5195,-0.0922 0.2072,-0.0217 0.4682,-0.0307 0.7766,-0.0307 0.3173,0 0.5783,0.009 0.7804,0.0307 0.2034,0.0205 0.3672,0.0538 0.4862,0.0922 0.1228,0.0422 0.2021,0.0972 0.2367,0.1599 0.0371,0.0678 0.0499,0.1446 0.0333,0.2239 l -3.031,15.1445 z" />
    </g>
  </g>
</svg>
